<?xml version="1.0" encoding="UTF-8"?>
<svg id="Capa_2" data-name="Capa 2" xmlns="http://www.w3.org/2000/svg" viewBox="0 0 216.78 218.83">
  <g id="FONCHITAS">
    <path id="T" d="M88.36,79.63c.55-2.37,4.58-14.87,5-16,1.94-5.15,1.27-3.37,3.58-8.37,4.51-9.77,10.07-18.68,16.84-27.01-7.97-4.18-17.93-6.33-26.56-8.89-7.64-2.08-15.86-4.03-24.66-5.83-5.67-1.16-11.4-2.02-17.17-2.43-6.22-.44-18.43-2.68-18.15,5.04.01.31.07.64.19.92.52,1.14,1.63,1.81,2.75,2.31,3.78,1.69,8.1,1.97,11.52,4.61,1.39,1.08,2.48,2.56,2.82,4.28.91,4.61-3.48,7.8-7.32,10.02-3.36,1.95-6.73,3.89-10.09,5.84-3.89,2.25-8.27,5.23-7.97,9.98.11,1.8.95,3.48,2.19,4.78,2.53,2.66,6.15,3.59,9.68,3.89,9.6.81,19.25-2.69,26.99-8.43,7.74-5.73,13.72-13.57,18.52-21.92-2.93,11-9.26,21.08-17.9,28.49-8.64,7.41-19.56,12.14-30.88,13.36-6.82.74-14.09.12-19.84-3.6-5.75-3.73-9.46-11.17-7.26-17.66,1.67-4.95,6.3-8.63,10.81-10.92,5.33-2.71,11.24-4.17,16.54-6.95,1.61-.84,3.29-1.96,3.1-4.18-.09-1.02-.62-1.97-1.39-2.65-1.9-1.71-4.44-1.86-6.85-2.13-5.79-.65-12.37-2.92-13.57-9.03-.65-3.29.63-6.62,2.94-9.06,4.04-4.25,9.92-5.35,15.56-5.72,11.59-.76,23.67.66,35.04,2.89,10.13,1.99,19.43,4.12,27.9,6.4,9.63,2.84,19.01,6.07,28.15,9.67,4.48-3.98,9.72-7.58,15.69-10.81,4.98-2.65,11-5.07,18.06-7.25s14.99-3.27,23.79-3.27c5.64,0,10.92.43,15.82,1.28s9.13,2.13,12.7,3.84,6.43,3.75,8.6,6.11c2.16,2.37,3.24,5.17,3.24,8.39.16,5.69-2.28,10.38-7.35,14.08-5.07,3.7-13.74,5.54-26.03,5.54-8.97,0-17.27-.47-24.91-1.42-7.64-.95-14.37-1.99-20.18-3.13-2.93-.57-5.95-1.05-8.84-1.79-3.92-1.01-7.75-3.97-12.17-.38-.59.48-1.12,1.05-1.61,1.64-11.11,13.49-16.75,29.6-21.31,46.44-3.99,14.97-9.96,37.04-14.76,51.76-4.98,15.29-9.52,30.76-15.96,45.52-5.94,13.61-14.47,31.34-28.36,38.41-4.98,2.54-10.97,3.41-16.23,1.51-7.55-2.73-12.17-10.5-14.17-18.27C.98,184.41.13,167.5.82,151.96c1.01-22.66,9.25-47.74,29.78-59.93,5.18-3.08,21.33-11.41,25.36-3.39.75,1.5.92,3.21.96,4.88.26,9.75-3.2,19.24-7.62,27.94-4.67,9.18-9.93,18.16-14.93,27.14,1.89-5.92,4.33-11.66,6.28-17.56,1.28-3.89,6.55-17.12,1.16-19.71-.88-.42-1.9-.41-2.87-.29-3.97.46-7.66,2.4-10.78,4.9-6.33,5.07-10.56,12.49-12.46,20.37-3.45,14.32-.18,34.98,10.01,46.17,3.04,3.33,7.33,6.02,11.81,5.48,8.17-1,13.85-11.31,17.47-17.69,4.82-8.51,8.41-17.64,12.24-26.62,6.41-15.01,11.28-30.78,15.94-46.41.79-2.66,4.45-14.98,5.22-17.65l-.03.04h0ZM190.6,11.4c-4.93-2.74-10.77-3.41-16.43-3.39-16.76.04-33.51,5.77-46.85,15.91.92-.7,11.37,3.27,13.04,3.64,4.5.99,9.03,1.67,13.61,2.15,10.22,1.08,20.55,2.08,30.77.52,2.71-.41,5.45-1.02,7.79-2.44,2.35-1.41,4.27-3.76,4.58-6.48.46-3.98-2.58-7.6-6.03-9.63-.16-.1-.33-.19-.49-.28,0,0,.01,0,.01,0Z"/>
  </g>
</svg>