<?xml version="1.0" encoding="UTF-8"?>
<svg id="Capa_2" data-name="Capa 2" xmlns="http://www.w3.org/2000/svg" viewBox="0 0 194.07 179.94">
  <g id="FONCHITAS">
    <path id="HI" d="M194.03,179.94h-49.39c-.61,0-.91-.21-.91-.64v-.48c0-.42.3-.64.91-.64h11.15c2.44,0,4.36-.32,5.76-.96s2.44-1.43,3.11-2.39,1.1-1.94,1.28-2.95c.18-1.01.27-1.88.27-2.63v-40.99c0-4.72-3.83-8.55-8.55-8.55h-11.56c-6.95,0-12.01,1.33-15.17,3.98-3.17,2.66-4.75,7.01-4.75,13.06v9.24h-2.01v-9.24c0-6.05-1.59-10.41-4.75-13.06-3.17-2.65-8.23-3.98-15.17-3.98h-11.74c-4.72,0-8.55,3.83-8.55,8.55v40.99c0,.74.09,1.62.27,2.63.18,1.01.61,1.99,1.28,2.95.67.96,1.71,1.75,3.11,2.39s3.32.96,5.76.96h11.33c.49,0,.73.21.73.64v.48c0,.42-.25.64-.73.64h-53.57c-.49,0-.73-.21-.73-.64v-.48c0-.42.24-.64.73-.64h11.34c2.44,0,4.36-.32,5.76-.96,1.4-.64,2.44-1.43,3.11-2.39.67-.96,1.1-1.94,1.28-2.95s.27-1.88.27-2.63v-77.62c0-.85-.09-1.8-.27-2.87-.18-1.06-.61-2.04-1.28-2.95-.67-.9-1.71-1.67-3.11-2.31s-3.32-.96-5.76-.96H.73c-.49,0-.73-.21-.73-.64v-.48c0-.42.24-.64.73-.64h104.98c.49,0,.73.21.73.64v.48c0,.43-.25.64-.73.64h-11.33c-2.44,0-4.36.32-5.76.96-1.4.64-2.44,1.41-3.11,2.31-.67.9-1.1,1.89-1.28,2.95s-.27,2.02-.27,2.87v17.77c0,4.72,3.83,8.55,8.55,8.55h11.74c7.07,0,12.16-1.33,15.27-3.98s4.66-3.44,4.66-9.71V36.58h2.01v67.68c0,6.05,1.58,6.79,4.75,9.55,3.17,2.76,8.23,4.14,15.17,4.14h11.56c4.72,0,8.55-3.83,8.55-8.55V10.85c0-.85-.09-1.8-.27-2.87-.18-1.06-.61-2.04-1.28-2.95-.67-.9-1.71-1.67-3.11-2.31-1.4-.64-3.32-.96-5.76-.96h-11.15c-.61,0-.91-.21-.91-.64v-.48c0-.42.3-.64.91-.64h48.39c.61,0,1.03-.06,1.03.36v1c0,.43-.43.39-1.03.39h-6.15c-2.44,0-4.36.32-5.76.96s-2.44,1.41-3.11,2.31-1.1,1.89-1.28,2.95c-.18,1.06-.27,2.02-.27,2.87v158.42c0,.74.09,1.62.27,2.63.18,1.01.61,1.99,1.28,2.95.67.96,1.71,1.75,3.11,2.39,1.4.64,3.32.96,5.76.96h7.15v1.75Z"/>
  </g>
</svg>