<?xml version="1.0" encoding="UTF-8"?>
<svg id="Capa_2" data-name="Capa 2" xmlns="http://www.w3.org/2000/svg" viewBox="0 0 1049.23 251.62">
  <g id="FONCHITAS">
    <path id="F" d="M158.56,90.94c0-12.99-3.02-22.37-9.06-28.12-6.04-5.76-16.7-8.64-31.99-8.64h-58.19c-4.92,0-8.92,3.99-8.92,8.92v62.6c0,4.92,3.99,8.92,8.92,8.92h19.96c10.94,0,18.87-2.14,23.78-6.41,4.91-4.28,7.36-11.18,7.36-20.72V1.36c0-.75.61-1.36,1.36-1.36h.4c.75,0,1.36.61,1.36,1.36v106.11c0,9.37,2.41,16.24,7.22,20.6,4.81,4.36,12.6,6.54,23.36,6.54h16.48c.75,0,1.36.61,1.36,1.36h0c0,.75-.61,1.36-1.36,1.36h-16.48c-10.76,0-18.55,2.06-23.36,6.17s-7.22,10.86-7.22,20.23v12.95c0,.75-.61,1.36-1.36,1.36h-.4c-.75,0-1.36-.61-1.36-1.36v-12.95c0-9.54-2.5-16.32-7.5-20.35-5-4.03-12.88-6.04-23.64-6.04h-19.96c-4.92,0-8.92,3.99-8.92,8.92v67.81c0,3.95,1.18,7.24,3.54,9.87,2.36,2.63,7.31,3.95,14.86,3.95h15.01c.94,0,1.42.33,1.42.99v.74c0,.66-.47.99-1.42.99H1.13c-.76,0-1.13-.33-1.13-.99v-.74c0-.65.38-.99,1.13-.99h15.29c7.55,0,12.46-1.31,14.72-3.95,2.27-2.63,3.4-5.92,3.4-9.87V67.99c0-4.6-.9-8.06-2.69-10.36-1.8-2.3-5.99-3.45-12.6-3.45H1.13c-.76,0-1.13-.33-1.13-.99v-.74c0-.66.38-.99,1.13-.99h134.77c4.72,0,8.49-.41,11.33-1.23,2.83-.82,5.28-2.06,7.36-3.7,2.26-1.97,3.63-4.15,4.11-6.54.47-2.38.71-4.89.71-7.53,0-.49.28-.74.85-.74h.85c.57,0,.85.25.85.74v64.14c0,.82-.47,1.23-1.42,1.23h-.57c-.95,0-1.42-.41-1.42-1.23v-5.67h0Z"/>
    <path id="O" d="M253.49,155.49c2.82,0,5.38.44,7.68,1.31,2.29.87,4.26,2.03,5.91,3.46,1.74,1.52,3.08,3.32,4.04,5.4.79,1.72,1.22,3.62,1.26,5.51.07,3.4-.93,6.53-3,9.39-2,2.77-4.18,5.18-6.53,7.23-2.76,2.4-5.85,4.56-9.28,6.47-.15.09-.26.24-.29.41-4.8,27.64-24.65,50.79-53.18,55.14-19.55,2.98-40.37-4-54.17-18.16-1.19-1.22-2.36-2.52-3.86-3.34-1.5-.82-3.21-1.11-4.89-1.41-11.73-2.12-24.81-6.55-27.43-19.6-.65-3.26-.44-6.66.52-9.84,3.3-11,12.9-17.66,23.11-21.09,2.48-.83,5.13-1.57,6.98-3.42,1.5-1.5,2.27-3.55,3.14-5.48,6.6-14.67,22.12-27.66,38.99-26.18,1.3.11,2.62.31,3.92.09s2.49-.86,3.68-1.45c19.76-9.68,47.85-4.86,58.62,15.62.12.23.39.36.65.31,1.48-.25,2.86-.38,4.15-.38h-.02ZM113.57,210.86c2.11,4.46,6.11,8,10.57,10.23,5.47,2.73,11.61,3.75,17.68,4.49-7.22-14.28-8.38-31.5-3.13-46.62.21-.59-9.26,2.45-9.69,2.65-4.35,2.06-8.41,4.74-11.58,8.41-4.16,4.82-6.49,11.52-4.97,17.7.27,1.09.65,2.14,1.12,3.14ZM192.35,145.31c4.16,3.18,4.43,10.06,1.54,14.58-3.07,4.81-8.57,7.46-13.95,9.36-7.54,2.66-15.43,4.33-23.4,4.94-2.57.2-5.27.32-7.45,1.7-4.52,2.87-2.64,13.78-2.2,18.19.23,2.46.65,5.05,1.24,7.76,1.64,7.56,4.97,14.63,10.31,20.28.67.71,1.4,1.41,2.31,1.75,1.24.46,2.62.18,3.91-.12,13.8-3.13,27.43-7,40.81-11.6,2.61-.9,5.32-1.88,7.25-3.86,5.86-5.99,5.28-20.54,7.53-28.46,2.22-7.8,6.27-15.95,13.42-20.25-4.56-5.27-11.86-9.87-18.24-12.75-7.62-3.44-15.8-4.18-23.9-2.1.29.17.56.35.82.55v.03h0ZM185.2,145.38c-.2-.15-.42-.31-.65-.45-1.48-.93-3.25-1.3-5-1.21-7.65.41-14.54,4.66-19.68,10.23-4.65,5.04-8.01,11.11-11.05,17.25.32-.65,12.51-1.93,14.11-2.41,4.94-1.47,9.97-3.53,14.28-6.39,4.29-2.84,14.6-11.92,7.97-17.02h.02ZM197.15,230.16c6.3-4.23,11.49-10.13,14.79-16.97-8,2.84-16.1,5.4-24.28,7.67-7.31,2.03-17.37,2.61-23.82,6.29,2.47,2.72,5.8,4.46,9,6.29,3.06,1.74,6.79,3.33,11.21,4.77,4.41,1.44,9.27,2.15,14.56,2.15s9.85-.64,14.03-1.92c4.17-1.28,7.94-2.95,11.29-5,3.35-2.05,6.32-4.43,8.91-7.15,2.59-2.71,4.82-5.46,6.71-8.23,4.47-6.57,7.88-13.69,9.72-21.41-10.3,4.67-20.6,9.33-30.9,14-1.59.72-3.2,1.46-4.51,2.61-1.57,1.38-2.58,3.25-3.72,5.01-4.92,7.63-12.57,13.46-21.22,16.19,2.89-1.12,5.66-2.58,8.23-4.3h0ZM242.92,163.6c-2.85,1.46-5.47,3.46-7.74,5.72-5.43,5.39-9.13,12.15-12.06,19.16-2.17,5.19-4.33,11.98-4.82,17.44,15.77-3.49,35.09-19.48,42.5-31.61,1.66-2.72,1.95-6.17.37-8.94-3.55-6.22-13.09-4.41-18.25-1.77h0Z"/>
    <path id="N" d="M260.84,123.84c-.01,1.59-1.17,2.94-2.74,3.18-1.74.26-3.94.19-5.52-1.5l-50.06-63.4c-1.2-1.5-3.96-.78-3.96,1.03v57.08c0,2.6.54,4.35,1.61,5.27,1.07.91,2.93,1.37,5.57,1.37h2.35c.25,0,.37.18.37.53v.32c0,.28-.12.42-.37.42h-23.15c-.5,0-.74-.14-.74-.42v-.32c0-.35.25-.53.74-.53h2.35c2.39,0,4.17-.49,5.32-1.47,1.16-.98,1.73-2.7,1.73-5.16v-61.73c0-1.2,1.35-6.04-13.93-5.22h-.38c-1.22-.04-1.12-1.63.09-1.63h24.12c.91,0,1.76.36,2.3.98l46.74,58.18c1.2,1.49,3.95.77,3.95-1.04v-51.27c0-2.11-.54-3.55-1.61-4.32-1.07-.77-2.93-1.16-5.57-1.16h-2.23c-.5,0-.74-.21-.74-.63v-.32c0-.28.25-.42.74-.42h23.03c.33,0,.5.14.5.42v.32c0,.42-.17.63-.5.63h-2.35c-2.4,0-4.19.39-5.39,1.16s-1.79,2.21-1.79,4.32l-.5,65.33h.02Z"/>
    <path id="C" d="M296.41,84.77c-2.04.44-4,1.07-5.73,2.21-4.22,2.76-6.18,8.49-5.12,13.36.9,4.13,4.24,7.75,8.39,8.51,2.49.45,5.04-.08,7.47-.79,4.02-1.17,7.92-2.76,11.67-4.63,6.71-3.35,13.15-7.23,19.26-11.59,4.04-2.89,8.53-6.17,13.79-3.8,1.01.46,1.92,1.11,2.69,1.91,3.57,3.7,3.81,8.78,3.2,13.49-.68,5.28-2.39,10.48-5.43,14.85-3.47,4.98-8.47,8.64-13.44,12.16-.29.2-.56.41-.83.63-1.88,1.5-8.8,6.19-10.05,7.07-3.58,2.53-7.17,5.07-10.75,7.6-6.51,4.61-14.41,8.94-19.15,15.45-1.14,1.56-2.03,3.31-2.47,5.2-2.3,9.91,7.36,15.4,15.81,15.6,5.22.13,10.46-1.15,15.04-3.66,5.06-2.77,9.19-6.94,13.55-10.72,4.99-4.33,10.64-8.34,17.39-8.76,2.65-.16,5.33.36,7.69,1.59,7.57,3.95,7.4,12.14,4.42,18.26-4.82,9.9-13.49,16.36-21.81,23.05-5.04,4.05-9.74,9.6-9.59,16.06.2,8.35,8.23,14.26,15.94,17.49,10.04,4.21,21.23,6.25,31.9,4.15s20.73-8.71,25.51-18.49c8.08-16.53-2.9-41.66,11.04-55.24,4.08-3.97,9.93-5.75,15.62-5.75,5.3,0,10.82,1.6,14.52,5.39,4.67,4.78,5.64,12.18,4.53,18.77-1.57,9.28-6.68,17.6-12.61,24.9-12.26,15.1-28.52,26.93-46.67,33.93-40.14,15.48-87.96,11.43-117.48-22.4-3.25-3.73-6.24-7.8-7.86-12.48-1.61-4.68-1.71-10.05.64-14.4,2.26-4.18,6.49-6.97,9.01-11,5.45-8.69.93-21.17-7.82-26.52-2.16-1.32-4.55-2.33-6.46-4-2.97-2.59-3.49-6.07-1.38-9.3,7.98-12.25,23.57-8.49,35.63-12.24,3.36-1.04,6.59-2.78,8.89-5.44.54-.63,1.05-1.34,1.21-2.16s-.1-1.77-.81-2.21c-.57-.36-1.3-.32-1.98-.24-3.49.4-6.97,1.56-10.44,1-2.38-.39-4.58-1.58-6.47-3.08-4.54-3.58-7.51-8.86-9.16-14.41-4.05-13.61-3.25-29.51,3.99-41.88,2.63-4.5,6.05-8.52,10.06-11.85,7.36-6.12,14.72-11.65,19.18-13.4,9.67-3.81,19.71-5.57,30.12-5.26,6.51.19,12.01,1.28,16.52,3.27,4.5,1.99,8.62,4.16,12.35,6.51,3.73,2.36,7.3,4.51,10.72,6.47,3.41,1.96,7.29,3,11.64,3.13,4.12.12,7.35-.66,9.68-2.35s4.55-3.53,6.68-5.51c2.12-1.99,4.61-3.77,7.49-5.34,2.86-1.57,6.91-2.28,12.12-2.13,6.72.2,12.42,2.22,17.08,6.07,4.66,3.85,8.43,8.55,11.31,14.1s4.93,11.42,6.16,17.6c1.22,6.18,1.77,11.72,1.63,16.59-.2,6.83-2,12.39-5.38,16.68s-8.55,6.34-15.49,6.13c-4.99-.15-9.18-1.69-12.57-4.62s-5.01-6.93-4.86-12c.13-4.48,1.05-8.17,2.77-11.05,1.71-2.88,3.64-5.65,5.78-8.32,2.14-2.67,4.07-5.64,5.8-8.91,1.73-3.27,2.66-7.43,2.81-12.51.12-3.9-1.14-7.3-3.77-10.21-2.63-2.91-6.44-4.44-11.43-4.58-4.56-.13-7.9.94-10.03,3.22-2.13,2.28-3.73,5.16-4.81,8.64s-1.84,7.22-2.29,11.21c-.44,3.99-1.21,7.72-2.29,11.21-1.08,3.48-2.74,6.36-4.98,8.64-2.24,2.28-5.75,3.34-10.52,3.2-3.47-.1-6.31-1.36-8.52-3.77-2.21-2.41-4.24-5.4-6.09-8.96s-3.74-7.48-5.68-11.73c-1.94-4.25-4.27-8.18-6.98-11.77-2.72-3.59-6.16-6.62-10.32-9.09s-9.5-3.79-16.01-3.99c-3.04-.09-6.03.11-8.98.61s-5.63,1.2-8.04,2.1c-2.42.91-4.41,1.97-5.96,3.19-1.56,1.23-2.36,2.62-2.4,4.18-.11,3.71,1.28,6.29,4.17,7.74s6,2.57,9.35,3.35c3.34.79,6.46,1.76,9.36,2.91,2.9,1.16,4.3,3.4,4.2,6.71-.09,3.12-2.07,5.6-5.92,7.44-10.57,5.04-23.15,6.62-34.63,8.3-1.44.21-2.9.42-4.33.73v-.02h0Z"/>
    <path id="HI" d="M583.3,229.55h-49.39c-.61,0-.91-.21-.91-.64v-.48c0-.42.3-.64.91-.64h11.15c2.44,0,4.36-.32,5.76-.96s2.44-1.43,3.11-2.39,1.1-1.94,1.28-2.95c.18-1.01.27-1.88.27-2.63v-40.99c0-4.72-3.83-8.55-8.55-8.55h-11.56c-6.95,0-12.01,1.33-15.17,3.98-3.17,2.66-4.75,7.01-4.75,13.06v9.24h-2.01v-9.24c0-6.05-1.59-10.41-4.75-13.06-3.17-2.65-8.23-3.98-15.17-3.98h-11.74c-4.72,0-8.55,3.83-8.55,8.55v40.99c0,.74.09,1.62.27,2.63.18,1.01.61,1.99,1.28,2.95.67.96,1.71,1.75,3.11,2.39s3.32.96,5.76.96h11.33c.49,0,.73.21.73.64v.48c0,.42-.25.64-.73.64h-53.57c-.49,0-.73-.21-.73-.64v-.48c0-.42.24-.64.73-.64h11.34c2.44,0,4.36-.32,5.76-.96,1.4-.64,2.44-1.43,3.11-2.39.67-.96,1.1-1.94,1.28-2.95s.27-1.88.27-2.63v-77.62c0-.85-.09-1.8-.27-2.87-.18-1.06-.61-2.04-1.28-2.95-.67-.9-1.71-1.67-3.11-2.31s-3.32-.96-5.76-.96h-62.75c-.49,0-.73-.21-.73-.64v-.48c0-.42.24-.64.73-.64h104.98c.49,0,.73.21.73.64v.48c0,.43-.25.64-.73.64h-11.33c-2.44,0-4.36.32-5.76.96-1.4.64-2.44,1.41-3.11,2.31-.67.9-1.1,1.89-1.28,2.95s-.27,2.02-.27,2.87v17.77c0,4.72,3.83,8.55,8.55,8.55h11.74c7.07,0,12.16-1.33,15.27-3.98s4.66-3.44,4.66-9.71v-67.68h2.01v67.68c0,6.05,1.58,6.79,4.75,9.55,3.17,2.76,8.23,4.14,15.17,4.14h11.56c4.72,0,8.55-3.83,8.55-8.55V60.46c0-.85-.09-1.8-.27-2.87-.18-1.06-.61-2.04-1.28-2.95-.67-.9-1.71-1.67-3.11-2.31-1.4-.64-3.32-.96-5.76-.96h-11.15c-.61,0-.91-.21-.91-.64v-.48c0-.42.3-.64.91-.64h48.39c.61,0,1.03-.06,1.03.36v1c0,.43-.43.39-1.03.39h-6.15c-2.44,0-4.36.32-5.76.96s-2.44,1.41-3.11,2.31-1.1,1.89-1.28,2.95c-.18,1.06-.27,2.02-.27,2.87v158.42c0,.74.09,1.62.27,2.63.18,1.01.61,1.99,1.28,2.95.67.96,1.71,1.75,3.11,2.39,1.4.64,3.32.96,5.76.96h7.15v1.75Z"/>
    <path id="T" d="M680.11,111.48c.55-2.37,4.58-14.87,5-16,1.94-5.15,1.27-3.37,3.58-8.37,4.51-9.77,10.07-18.68,16.84-27.01-7.97-4.18-17.93-6.33-26.56-8.89-7.64-2.08-15.86-4.03-24.66-5.83-5.67-1.16-11.4-2.02-17.17-2.43-6.22-.44-18.43-2.68-18.15,5.04.01.31.07.64.19.92.52,1.14,1.63,1.81,2.75,2.31,3.78,1.69,8.1,1.97,11.52,4.61,1.39,1.08,2.48,2.56,2.82,4.28.91,4.61-3.48,7.8-7.32,10.02-3.36,1.95-6.73,3.89-10.09,5.84-3.89,2.25-8.27,5.23-7.97,9.98.11,1.8.95,3.48,2.19,4.78,2.53,2.66,6.15,3.59,9.68,3.89,9.6.81,19.25-2.69,26.99-8.43,7.74-5.73,13.72-13.57,18.52-21.92-2.93,11-9.26,21.08-17.9,28.49-8.64,7.41-19.56,12.14-30.88,13.36-6.82.74-14.09.12-19.84-3.6-5.75-3.73-9.46-11.17-7.26-17.66,1.67-4.95,6.3-8.63,10.81-10.92,5.33-2.71,11.24-4.17,16.54-6.95,1.61-.84,3.29-1.96,3.1-4.18-.09-1.02-.62-1.97-1.39-2.65-1.9-1.71-4.44-1.86-6.85-2.13-5.79-.65-12.37-2.92-13.57-9.03-.65-3.29.63-6.62,2.94-9.06,4.04-4.25,9.92-5.35,15.56-5.72,11.59-.76,23.67.66,35.04,2.89,10.13,1.99,19.43,4.12,27.9,6.4,9.63,2.84,19.01,6.07,28.15,9.67,4.48-3.98,9.72-7.58,15.69-10.81,4.98-2.65,11-5.07,18.06-7.25s14.99-3.27,23.79-3.27c5.64,0,10.92.43,15.82,1.28s9.13,2.13,12.7,3.84,6.43,3.75,8.6,6.11c2.16,2.37,3.24,5.17,3.24,8.39.16,5.69-2.28,10.38-7.35,14.08-5.07,3.7-13.74,5.54-26.03,5.54-8.97,0-17.27-.47-24.91-1.42-7.64-.95-14.37-1.99-20.18-3.13-2.93-.57-5.95-1.05-8.84-1.79-3.92-1.01-7.75-3.97-12.17-.38-.59.48-1.12,1.05-1.61,1.64-11.11,13.49-16.75,29.6-21.31,46.44-3.99,14.97-9.96,37.04-14.76,51.76-4.98,15.29-9.52,30.76-15.96,45.52-5.94,13.61-14.47,31.34-28.36,38.41-4.98,2.54-10.97,3.41-16.23,1.51-7.55-2.73-12.17-10.5-14.17-18.27-3.91-15.12-4.76-32.03-4.07-47.57,1.01-22.66,9.25-47.74,29.78-59.93,5.18-3.08,21.33-11.41,25.36-3.39.75,1.5.92,3.21.96,4.88.26,9.75-3.2,19.24-7.62,27.94-4.67,9.18-9.93,18.16-14.93,27.14,1.89-5.92,4.33-11.66,6.28-17.56,1.28-3.89,6.55-17.12,1.16-19.71-.88-.42-1.9-.41-2.87-.29-3.97.46-7.66,2.4-10.78,4.9-6.33,5.07-10.56,12.49-12.46,20.37-3.45,14.32-.18,34.98,10.01,46.17,3.04,3.33,7.33,6.02,11.81,5.48,8.17-1,13.85-11.31,17.47-17.69,4.82-8.51,8.41-17.64,12.24-26.62,6.41-15.01,11.28-30.78,15.94-46.41.79-2.66,4.45-14.98,5.22-17.65l-.03.04h0ZM782.35,43.25c-4.93-2.74-10.77-3.41-16.43-3.39-16.76.04-33.51,5.77-46.85,15.91.92-.7,11.37,3.27,13.04,3.64,4.5.99,9.03,1.67,13.61,2.15,10.22,1.08,20.55,2.08,30.77.52,2.71-.41,5.45-1.02,7.79-2.44,2.35-1.41,4.27-3.76,4.58-6.48.46-3.98-2.58-7.6-6.03-9.63-.16-.1-.33-.19-.49-.28,0,0,.01,0,.01,0Z"/>
    <path id="A" d="M743.16,228.4c2.18,0,3.92-.22,5.22-.68,1.3-.45,2.23-1.02,2.8-1.7s.88-1.47.94-2.38c.05-.9-.03-1.76-.23-2.58-.52-1.45-1.01-3.07-1.48-4.89-.47-1.81-1.12-3.71-1.95-5.7-1.25-3.26-3.22-6.15-5.92-8.68s-6.54-3.8-11.52-3.8c-3.11,0-6,.79-8.64,2.38-2.65,1.58-5.17,3.57-7.55,5.97-2.39,2.4-4.7,4.98-6.93,7.73-2.23,2.76-4.57,5.34-7.01,7.73-2.44,2.4-5.01,4.39-7.71,5.97s-5.71,2.38-9.03,2.38c-4.05,0-7.42-1.09-10.12-3.26s-4.05-5.65-4.05-10.45c0-2.8.49-5.9,1.48-9.3.99-3.39,2.26-7.01,3.82-10.86,1.56-3.84,3.35-7.89,5.37-12.14s4.02-8.59,6-13.03c.94-2.08,2.02-4.52,3.27-7.33,1.25-2.8,2.54-5.7,3.89-8.68,1.35-2.99,2.67-5.9,3.97-8.75s2.41-5.31,3.35-7.4c.52-1.27.88-2.24,1.09-2.92s.31-1.38.31-2.1c0-1.63-1.04-2.44-3.11-2.44h-1.64c-.42,0-.62-.14-.62-.41v-.14c0-.18.21-.27.62-.27h52.41c.31,0,.47.09.47.27v.14c0,.27-.16.41-.47.41h-9.34c-2.28,0-3.74.63-4.36,1.9-.62,1.27-.62,2.85,0,4.75,4.36,14.11,8.77,28.14,13.24,42.07,4.46,13.93,9.29,27.86,14.48,41.79.83,2.26,1.89,3.89,3.19,4.89s3.56,1.49,6.78,1.49h4.83c.31,0,.47.09.47.27v.27c0,.18-.16.27-.47.27h-41.11c-.21,0-.31-.09-.31-.27v-.27c0-.18.1-.27.31-.27h5.3l-.04.02h0ZM689.44,173.31c-.86,0-1.63.5-1.97,1.28-.72,1.63-1.57,3.51-2.55,5.64-1.25,2.71-2.47,5.56-3.66,8.55s-2.23,5.95-3.11,8.89-1.32,5.54-1.32,7.8c0,3.71,1.19,6.36,3.58,7.94s5.03,2.38,7.94,2.38c1.97,0,3.94-.43,5.92-1.29,1.97-.86,4-1.97,6.07-3.32,2.08-1.36,4.2-2.85,6.39-4.48,1.86-1.39,3.77-2.72,5.71-3.98.61-.4.99-1.07.99-1.81v-12.94c0-5.16-1.35-8.89-4.05-11.19-2.7-2.31-7.01-3.46-12.93-3.46h-7.01ZM700.73,144.4c-.88,2.08-2,4.61-3.35,7.6s-2.8,6.27-4.36,9.84c-1.11,2.55-2.22,5.09-3.34,7.62-.63,1.43.42,3.03,1.98,3.03h4.78c6.12,0,10.48-1.17,13.08-3.53,2.59-2.35,3.89-6.2,3.89-11.53v-21.19c0-1.36-1.23-2.38-2.57-2.13-1.24.23-2.44.59-3.58,1.07-1.92.81-3.5,2.58-4.75,5.29-.31.54-.91,1.86-1.79,3.94h0ZM733.35,172.49c1.47,0,2.51-1.43,2.06-2.83-1.73-5.44-3.35-10.51-4.86-15.22-1.77-5.52-3.22-10-4.36-13.43-.73-2.17-1.97-3.89-3.74-5.16-1.34-.96-3.22-1.58-5.64-1.87-1.3-.15-2.46.84-2.46,2.15v21.3c0,5.16,1.32,8.96,3.97,11.4,2.65,2.44,6.93,3.66,12.85,3.66h2.18ZM739.04,180.97c-.63-2.07-1.27-4.13-1.93-6.17-.29-.89-1.12-1.5-2.06-1.5h-3.87c-6.13,0-10.46,1.13-13,3.39-2.55,2.26-3.82,6.02-3.82,11.26v9.96c0,1.62,1.7,2.64,3.15,1.92,1.65-.82,3.3-1.55,4.94-2.18,2.7-1.04,5.5-1.56,8.41-1.56,2.39,0,4.28.2,5.68.61,1.4.41,2.62.61,3.66.61h.08c.94,0,1.8-.63,2.02-1.54v-.02c.16-.68.21-1.42.16-2.24-.05-.81-.18-1.67-.39-2.58-.21-.9-.42-1.67-.62-2.31-.83-2.53-1.64-5.09-2.41-7.67v.02h0Z"/>
    <path id="S" d="M965.46,128.12c4.94-1.11,10.04-2.32,15.3-3.62s10.74-2.51,16.43-3.62,11.54-1.67,17.56-1.67c9.67,0,17.83,2.23,24.49,6.69,6.66,4.46,9.99,10.68,9.99,18.67,0,5.02-1.34,9.43-4.03,13.23-2.69,3.81-6.18,7.1-10.47,9.89-4.3,2.79-9.18,5.11-14.66,6.97-5.48,1.86-11.12,3.44-16.92,4.73-6.23,1.3-12.3,2.19-18.2,2.65-5.91.47-11.17.93-15.79,1.39-4.62.47-8.43,1.16-11.44,2.09s-4.73,2.51-5.15,4.74c-.64,3.16.91,5.62,4.67,7.38,3.76,1.77,8.06,3.53,12.89,5.29,4.83,1.77,9.34,3.95,13.53,6.55s6.28,6.32,6.28,11.14c0,4.46-2.37,8.55-7.09,12.26-4.73,3.72-10.53,6.92-17.4,9.61-6.88,2.69-14.13,4.74-21.75,6.13-7.63,1.39-14.34,2.09-20.14,2.09-44.63,0-92.54-20.08-131.13-41.01-14.42-7.82-31.83-20.63-26.33-39.54,2.75-9.43,11.15-16.87,20.77-18.87,4.73-.98,9.79-.72,14.22,1.21,5.44,2.37,9.56,7.01,12.97,11.87,16.28,23.21,24.23,44.96,49.58,60.43,23.91,14.59,54.02,22.79,81.98,18.1,4.4-.74,8.97-1.72,13.69-2.92,4.72-1.21,9.07-2.74,13.05-4.6,3.97-1.86,7.2-4.04,9.67-6.55,2.47-2.51,3.71-5.34,3.71-8.5,0-2.6-1.93-4.73-5.8-6.41-3.87-1.67-8.7-3.25-14.5-4.74-5.8-1.48-12.14-2.92-19.01-4.32-6.88-1.39-13.21-3.11-19.01-5.15s-10.63-4.46-14.5-7.25c-3.87-2.78-5.8-6.31-5.8-10.59,0-2.41.8-4.46,2.42-6.13,1.61-1.67,3.71-3.07,6.28-4.18s5.32-1.95,8.22-2.51c2.9-.56,5.64-.83,8.22-.83s6.82.05,12.73.14c5.91.1,12.24.23,19.01.42s13.32.33,19.65.42c6.33.1,11.12.14,14.34.14,5.58,0,11.17-.46,16.75-1.39s10.63-2.37,15.14-4.32c4.51-1.95,8.22-4.41,11.12-7.38s4.35-6.5,4.35-10.59c0-5.39-2.37-9.75-7.09-13.1-4.73-3.34-11.6-5.02-20.62-5.02-9.67,0-20.19,1.86-31.58,5.57-11.39,3.72-22.67,7.8-33.83,12.26-11.17,4.46-21.7,8.55-31.58,12.26-9.88,3.72-18.26,5.57-25.13,5.57-3.87,0-7.09-.93-9.67-2.79-2.58-1.85-3.87-4.46-3.87-7.8,0-3.53,1.45-6.87,4.35-10.03,2.9-3.16,6.55-6.22,10.95-9.19s9.18-5.85,14.34-8.64c5.16-2.79,9.93-5.43,14.34-7.94,4.4-2.51,8.05-4.92,10.95-7.24s4.35-4.5,4.35-6.55c0-.93-.48-2.09-1.45-3.48-.97-1.39-3.38-2.09-7.25-2.09-7.09,0-13.53,2.09-19.33,6.27-12.29,8.86-23.41,20.01-36.77,27.26-13.12,7.11-28.46,9.76-43.3,9.29-20.62-.65-40.61-6.81-60.3-12.92-7.08-2.2-14.28-4.45-20.45-8.53-3.59-2.38-6.95-5.64-7.76-9.85-1.19-6.21,3.85-9.58,9.33-9.9,21.71-1.28,47.74-7.51,58.22-28.69,5.53-11.19,6.32-22.81,17.97-29.66,11.96-7.04,25.44-9.56,39.24-9.56,7.52,0,13.64.98,18.37,2.93,4.72,1.95,8.7,4.09,11.92,6.41s6.17,4.46,8.86,6.41c2.68,1.95,5.64,3.02,8.86,3.2h.64c3.22,0,5.53-.84,6.93-2.51,1.39-1.67,2.68-3.48,3.87-5.43,1.18-1.95,2.58-3.76,4.19-5.43,1.61-1.67,4.24-2.51,7.9-2.51,4.08,0,9.23,1.16,15.46,3.48,6.23,2.32,12.24,5.48,18.05,9.47,5.8,4,10.74,8.59,14.82,13.79,4.08,5.2,6.12,10.68,6.12,16.44,0,4.83-1.4,8.92-4.19,12.26-2.79,3.34-6.66,5.01-11.6,5.01-5.37,0-9.29-1.34-11.76-4.04-2.47-2.69-4.14-5.94-5-9.75-.86-3.8-1.29-7.8-1.29-11.98s-.43-7.84-1.29-11c-1.5-5.57-3.87-10.4-7.09-14.49-3.22-4.08-7.31-6.13-12.24-6.13-3.01,0-4.94.93-5.8,2.79s-1.13,4.18-.8,6.97c.32,2.79.86,5.81,1.61,9.05.75,3.25,1.18,6.41,1.29,9.47.11,3.06-.32,5.76-1.29,8.08s-3.17,3.86-6.61,4.6c-1.72.37-3.01.56-3.87.56-3.65,0-6.66-1.11-9.02-3.34-2.37-2.23-4.57-4.97-6.61-8.22s-4.08-6.78-6.12-10.59-4.46-7.34-7.25-10.59-6.23-5.99-10.31-8.22c-4.08-2.23-9.13-3.34-15.14-3.34-7.09,0-12.89,1.16-17.4,3.48s-6.76,5.62-6.76,9.89c0,3.53,2.04,5.99,6.12,7.38,4.08,1.39,8.54,2.55,13.37,3.48s9.29,2.09,13.37,3.48,6.12,3.86,6.12,7.38-2.31,6.69-6.93,9.47c-4.62,2.79-9.72,5.57-15.3,8.36-5.59,2.79-10.69,5.81-15.3,9.06-4.62,3.25-6.93,7.29-6.93,12.12,0,3.9,1.5,6.83,4.51,8.78s6.77,2.93,11.28,2.93c9.23,0,16.92-1.39,23.04-4.18s11.81-5.8,17.08-9.05c5.26-3.25,10.68-6.27,16.27-9.06,5.58-2.79,12.35-4.18,20.3-4.18,2.58,0,5.37.61,8.38,1.81,3.01,1.21,4.51,3.76,4.51,7.66,0,1.67-.38,3.16-1.13,4.46-.76,1.3-1.51,2.65-2.25,4.04-.76,1.39-1.51,2.88-2.25,4.46-.76,1.58-1.13,3.48-1.13,5.71,0,2.42,1.07,4.32,3.22,5.71,2.14,1.39,4.83,2.09,8.05,2.09,4.51,0,9.23-.56,14.18-1.67h.02Z"/>
  </g>
</svg>