<?xml version="1.0" encoding="UTF-8"?>
<svg id="Capa_2" data-name="Capa 2" xmlns="http://www.w3.org/2000/svg" viewBox="0 0 163.01 115.36">
  <g id="FONCHITAS">
    <path id="O" d="M144.11,20.36c2.82,0,5.38.44,7.68,1.31,2.29.87,4.26,2.03,5.91,3.46,1.74,1.52,3.08,3.32,4.04,5.4.79,1.72,1.22,3.62,1.26,5.51.07,3.4-.93,6.53-3,9.39-2,2.77-4.18,5.18-6.53,7.23-2.76,2.4-5.85,4.56-9.28,6.47-.15.09-.26.24-.29.41-4.8,27.64-24.65,50.79-53.18,55.14-19.55,2.98-40.37-4-54.17-18.16-1.19-1.22-2.36-2.52-3.86-3.34-1.5-.82-3.21-1.11-4.89-1.41-11.73-2.12-24.81-6.55-27.43-19.6-.65-3.26-.44-6.66.52-9.84,3.3-11,12.9-17.66,23.11-21.09,2.48-.83,5.13-1.57,6.98-3.42,1.5-1.5,2.27-3.55,3.14-5.48,6.6-14.67,22.12-27.66,38.99-26.18,1.3.11,2.62.31,3.92.09s2.49-.86,3.68-1.45C100.47-4.88,128.56-.06,139.33,20.42c.12.23.39.36.65.31,1.48-.25,2.86-.38,4.15-.38h-.02ZM4.19,75.73c2.11,4.46,6.11,8,10.57,10.23,5.47,2.73,11.61,3.75,17.68,4.49-7.22-14.28-8.38-31.5-3.13-46.62.21-.59-9.26,2.45-9.69,2.65-4.35,2.06-8.41,4.74-11.58,8.41-4.16,4.82-6.49,11.52-4.97,17.7.27,1.09.65,2.14,1.12,3.14ZM82.97,10.18c4.16,3.18,4.43,10.06,1.54,14.58-3.07,4.81-8.57,7.46-13.95,9.36-7.54,2.66-15.43,4.33-23.4,4.94-2.57.2-5.27.32-7.45,1.7-4.52,2.87-2.64,13.78-2.2,18.19.23,2.46.65,5.05,1.24,7.76,1.64,7.56,4.97,14.63,10.31,20.28.67.71,1.4,1.41,2.31,1.75,1.24.46,2.62.18,3.91-.12,13.8-3.13,27.43-7,40.81-11.6,2.61-.9,5.32-1.88,7.25-3.86,5.86-5.99,5.28-20.54,7.53-28.46,2.22-7.8,6.27-15.95,13.42-20.25-4.56-5.27-11.86-9.87-18.24-12.75-7.62-3.44-15.8-4.18-23.9-2.1.29.17.56.35.82.55v.03h0ZM75.82,10.25c-.2-.15-.42-.31-.65-.45-1.48-.93-3.25-1.3-5-1.21-7.65.41-14.54,4.66-19.68,10.23-4.65,5.04-8.01,11.11-11.05,17.25.32-.65,12.51-1.93,14.11-2.41,4.94-1.47,9.97-3.53,14.28-6.39,4.29-2.84,14.6-11.92,7.97-17.02h.02ZM87.77,95.03c6.3-4.23,11.49-10.13,14.79-16.97-8,2.84-16.1,5.4-24.28,7.67-7.31,2.03-17.37,2.61-23.82,6.29,2.47,2.72,5.8,4.46,9,6.29,3.06,1.74,6.79,3.33,11.21,4.77,4.41,1.44,9.27,2.15,14.56,2.15s9.85-.64,14.03-1.92c4.17-1.28,7.94-2.95,11.29-5,3.35-2.05,6.32-4.43,8.91-7.15,2.59-2.71,4.82-5.46,6.71-8.23,4.47-6.57,7.88-13.69,9.72-21.41-10.3,4.67-20.6,9.33-30.9,14-1.59.72-3.2,1.46-4.51,2.61-1.57,1.38-2.58,3.25-3.72,5.01-4.92,7.63-12.57,13.46-21.22,16.19,2.89-1.12,5.66-2.58,8.23-4.3h0ZM133.54,28.47c-2.85,1.46-5.47,3.46-7.74,5.72-5.43,5.39-9.13,12.15-12.06,19.16-2.17,5.19-4.33,11.98-4.82,17.44,15.77-3.49,35.09-19.48,42.5-31.61,1.66-2.72,1.95-6.17.37-8.94-3.55-6.22-13.09-4.41-18.25-1.77h0Z"/>
  </g>
</svg>