<?xml version="1.0" encoding="UTF-8"?>
<svg id="Capa_2" data-name="Capa 2" xmlns="http://www.w3.org/2000/svg" viewBox="0 0 109.5 99.48">
  <g id="FONCHITAS">
    <path id="A" d="M73.18,97.73c2.18,0,3.92-.22,5.22-.68,1.3-.45,2.23-1.02,2.8-1.7s.88-1.47.94-2.38c.05-.9-.03-1.76-.23-2.58-.52-1.45-1.01-3.07-1.48-4.89-.47-1.81-1.12-3.71-1.95-5.7-1.25-3.26-3.22-6.15-5.92-8.68s-6.54-3.8-11.52-3.8c-3.11,0-6,.79-8.64,2.38-2.65,1.58-5.17,3.57-7.55,5.97-2.39,2.4-4.7,4.98-6.93,7.73-2.23,2.76-4.57,5.34-7.01,7.73-2.44,2.4-5.01,4.39-7.71,5.97s-5.71,2.38-9.03,2.38c-4.05,0-7.42-1.09-10.12-3.26s-4.05-5.65-4.05-10.45c0-2.8.49-5.9,1.48-9.3.99-3.39,2.26-7.01,3.82-10.86,1.56-3.84,3.35-7.89,5.37-12.14s4.02-8.59,6-13.03c.94-2.08,2.02-4.52,3.27-7.33,1.25-2.8,2.54-5.7,3.89-8.68,1.35-2.99,2.67-5.9,3.97-8.75s2.41-5.31,3.35-7.4c.52-1.27.88-2.24,1.09-2.92s.31-1.38.31-2.1c0-1.63-1.04-2.44-3.11-2.44h-1.64c-.42,0-.62-.14-.62-.41v-.14c0-.18.21-.27.62-.27h52.41c.31,0,.47.09.47.27v.14c0,.27-.16.41-.47.41h-9.34c-2.28,0-3.74.63-4.36,1.9-.62,1.27-.62,2.85,0,4.75,4.36,14.11,8.77,28.14,13.24,42.07,4.46,13.93,9.29,27.86,14.48,41.79.83,2.26,1.89,3.89,3.19,4.89s3.56,1.49,6.78,1.49h4.83c.31,0,.47.09.47.27v.27c0,.18-.16.27-.47.27h-41.11c-.21,0-.31-.09-.31-.27v-.27c0-.18.1-.27.31-.27h5.3l-.04.02h0ZM19.46,42.64c-.86,0-1.63.5-1.97,1.28-.72,1.63-1.57,3.51-2.55,5.64-1.25,2.71-2.47,5.56-3.66,8.55s-2.23,5.95-3.11,8.89-1.32,5.54-1.32,7.8c0,3.71,1.19,6.36,3.58,7.94s5.03,2.38,7.94,2.38c1.97,0,3.94-.43,5.92-1.29,1.97-.86,4-1.97,6.07-3.32,2.08-1.36,4.2-2.85,6.39-4.48,1.86-1.39,3.77-2.72,5.71-3.98.61-.4.99-1.07.99-1.81v-12.94c0-5.16-1.35-8.89-4.05-11.19-2.7-2.31-7.01-3.46-12.93-3.46h-7.01ZM30.75,13.73c-.88,2.08-2,4.61-3.35,7.6s-2.8,6.27-4.36,9.84c-1.11,2.55-2.22,5.09-3.34,7.62-.63,1.43.42,3.03,1.98,3.03h4.78c6.12,0,10.48-1.17,13.08-3.53,2.59-2.35,3.89-6.2,3.89-11.53V5.57c0-1.36-1.23-2.38-2.57-2.13-1.24.23-2.44.59-3.58,1.07-1.92.81-3.5,2.58-4.75,5.29-.31.54-.91,1.86-1.79,3.94h0ZM63.37,41.82c1.47,0,2.51-1.43,2.06-2.83-1.73-5.44-3.35-10.51-4.86-15.22-1.77-5.52-3.22-10-4.36-13.43-.73-2.17-1.97-3.89-3.74-5.16-1.34-.96-3.22-1.58-5.64-1.87-1.3-.15-2.46.84-2.46,2.15v21.3c0,5.16,1.32,8.96,3.97,11.4,2.65,2.44,6.93,3.66,12.85,3.66h2.18ZM69.06,50.3c-.63-2.07-1.27-4.13-1.93-6.17-.29-.89-1.12-1.5-2.06-1.5h-3.87c-6.13,0-10.46,1.13-13,3.39-2.55,2.26-3.82,6.02-3.82,11.26v9.96c0,1.62,1.7,2.64,3.15,1.92,1.65-.82,3.3-1.55,4.94-2.18,2.7-1.04,5.5-1.56,8.41-1.56,2.39,0,4.28.2,5.68.61,1.4.41,2.62.61,3.66.61h.08c.94,0,1.8-.63,2.02-1.54v-.02c.16-.68.21-1.42.16-2.24-.05-.81-.18-1.67-.39-2.58-.21-.9-.42-1.67-.62-2.31-.83-2.53-1.64-5.09-2.41-7.67v.02h0Z"/>
  </g>
</svg>