<?xml version="1.0" encoding="UTF-8"?>
<svg id="Capa_2" data-name="Capa 2" xmlns="http://www.w3.org/2000/svg" viewBox="0 0 204.9 219.95">
  <g id="FONCHITAS">
    <path id="C" d="M36.85,53.1c-2.04.44-4,1.07-5.73,2.21-4.22,2.76-6.18,8.49-5.12,13.36.9,4.13,4.24,7.75,8.39,8.51,2.49.45,5.04-.08,7.47-.79,4.02-1.17,7.92-2.76,11.67-4.63,6.71-3.35,13.15-7.23,19.26-11.59,4.04-2.89,8.53-6.17,13.79-3.8,1.01.46,1.92,1.11,2.69,1.91,3.57,3.7,3.81,8.78,3.2,13.49-.68,5.28-2.39,10.48-5.43,14.85-3.47,4.98-8.47,8.64-13.44,12.16-.29.2-.56.41-.83.63-1.88,1.5-8.8,6.19-10.05,7.07-3.58,2.53-7.17,5.07-10.75,7.6-6.51,4.61-14.41,8.94-19.15,15.45-1.14,1.56-2.03,3.31-2.47,5.2-2.3,9.91,7.36,15.4,15.81,15.6,5.22.13,10.46-1.15,15.04-3.66,5.06-2.77,9.19-6.94,13.55-10.72,4.99-4.33,10.64-8.34,17.39-8.76,2.65-.16,5.33.36,7.69,1.59,7.57,3.95,7.4,12.14,4.42,18.26-4.82,9.9-13.49,16.36-21.81,23.05-5.04,4.05-9.74,9.6-9.59,16.06.2,8.35,8.23,14.26,15.94,17.49,10.04,4.21,21.23,6.25,31.9,4.15s20.73-8.71,25.51-18.49c8.08-16.53-2.9-41.66,11.04-55.24,4.08-3.97,9.93-5.75,15.62-5.75,5.3,0,10.82,1.6,14.52,5.39,4.67,4.78,5.64,12.18,4.53,18.77-1.57,9.28-6.68,17.6-12.61,24.9-12.26,15.1-28.52,26.93-46.67,33.93-40.14,15.48-87.96,11.43-117.48-22.4-3.25-3.73-6.24-7.8-7.86-12.48-1.61-4.68-1.71-10.05.64-14.4,2.26-4.18,6.49-6.97,9.01-11,5.45-8.69.93-21.17-7.82-26.52-2.16-1.32-4.55-2.33-6.46-4-2.97-2.59-3.49-6.07-1.38-9.3,7.98-12.25,23.57-8.49,35.63-12.24,3.36-1.04,6.59-2.78,8.89-5.44.54-.63,1.05-1.34,1.21-2.16s-.1-1.77-.81-2.21c-.57-.36-1.3-.32-1.98-.24-3.49.4-6.97,1.56-10.44,1-2.38-.39-4.58-1.58-6.47-3.08-4.54-3.58-7.51-8.86-9.16-14.41-4.05-13.61-3.25-29.51,3.99-41.88,2.63-4.5,6.05-8.52,10.06-11.85,7.36-6.12,14.72-11.65,19.18-13.4C61.05,1.48,71.09-.28,81.5.03c6.51.19,12.01,1.28,16.52,3.27,4.5,1.99,8.62,4.16,12.35,6.51,3.73,2.36,7.3,4.51,10.72,6.47,3.41,1.96,7.29,3,11.64,3.13,4.12.12,7.35-.66,9.68-2.35s4.55-3.53,6.68-5.51c2.12-1.99,4.61-3.77,7.49-5.34,2.86-1.57,6.91-2.28,12.12-2.13,6.72.2,12.42,2.22,17.08,6.07,4.66,3.85,8.43,8.55,11.31,14.1s4.93,11.42,6.16,17.6c1.22,6.18,1.77,11.72,1.63,16.59-.2,6.83-2,12.39-5.38,16.68s-8.55,6.34-15.49,6.13c-4.99-.15-9.18-1.69-12.57-4.62s-5.01-6.93-4.86-12c.13-4.48,1.05-8.17,2.77-11.05,1.71-2.88,3.64-5.65,5.78-8.32,2.14-2.67,4.07-5.64,5.8-8.91,1.73-3.27,2.66-7.43,2.81-12.51.12-3.9-1.14-7.3-3.77-10.21-2.63-2.91-6.44-4.44-11.43-4.58-4.56-.13-7.9.94-10.03,3.22-2.13,2.28-3.73,5.16-4.81,8.64s-1.84,7.22-2.29,11.21c-.44,3.99-1.21,7.72-2.29,11.21-1.08,3.48-2.74,6.36-4.98,8.64-2.24,2.28-5.75,3.34-10.52,3.2-3.47-.1-6.31-1.36-8.52-3.77-2.21-2.41-4.24-5.4-6.09-8.96s-3.74-7.48-5.68-11.73c-1.94-4.25-4.27-8.18-6.98-11.77-2.72-3.59-6.16-6.62-10.32-9.09s-9.5-3.79-16.01-3.99c-3.04-.09-6.03.11-8.98.61s-5.63,1.2-8.04,2.1c-2.42.91-4.41,1.97-5.96,3.19-1.56,1.23-2.36,2.62-2.4,4.18-.11,3.71,1.28,6.29,4.17,7.74s6,2.57,9.35,3.35c3.34.79,6.46,1.76,9.36,2.91,2.9,1.16,4.3,3.4,4.2,6.71-.09,3.12-2.07,5.6-5.92,7.44-10.57,5.04-23.15,6.62-34.63,8.3-1.44.21-2.9.42-4.33.73v-.02h0Z"/>
  </g>
</svg>