<?xml version="1.0" encoding="UTF-8"?>
<svg id="Capa_2" data-name="Capa 2" xmlns="http://www.w3.org/2000/svg" viewBox="0 0 304.76 219.55">
  <g id="FONCHITAS">
    <path id="S" d="M220.99,96.96c4.94-1.11,10.04-2.32,15.3-3.62s10.74-2.51,16.43-3.62,11.54-1.67,17.56-1.67c9.67,0,17.83,2.23,24.49,6.69,6.66,4.46,9.99,10.68,9.99,18.67,0,5.02-1.34,9.43-4.03,13.23-2.69,3.81-6.18,7.1-10.47,9.89-4.3,2.79-9.18,5.11-14.66,6.97-5.48,1.86-11.12,3.44-16.92,4.73-6.23,1.3-12.3,2.19-18.2,2.65-5.91.47-11.17.93-15.79,1.39-4.62.47-8.43,1.16-11.44,2.09s-4.73,2.51-5.15,4.74c-.64,3.16.91,5.62,4.67,7.38,3.76,1.77,8.06,3.53,12.89,5.29,4.83,1.77,9.34,3.95,13.53,6.55s6.28,6.32,6.28,11.14c0,4.46-2.37,8.55-7.09,12.26-4.73,3.72-10.53,6.92-17.4,9.61-6.88,2.69-14.13,4.74-21.75,6.13-7.63,1.39-14.34,2.09-20.14,2.09-44.63,0-92.54-20.08-131.13-41.01-14.42-7.82-31.83-20.63-26.33-39.54,2.75-9.43,11.15-16.87,20.77-18.87,4.73-.98,9.79-.72,14.22,1.21,5.44,2.37,9.56,7.01,12.97,11.87,16.28,23.21,24.23,44.96,49.58,60.43,23.91,14.59,54.02,22.79,81.98,18.1,4.4-.74,8.97-1.72,13.69-2.92,4.72-1.21,9.07-2.74,13.05-4.6,3.97-1.86,7.2-4.04,9.67-6.55,2.47-2.51,3.71-5.34,3.71-8.5,0-2.6-1.93-4.73-5.8-6.41-3.87-1.67-8.7-3.25-14.5-4.74-5.8-1.48-12.14-2.92-19.01-4.32-6.88-1.39-13.21-3.11-19.01-5.15s-10.63-4.46-14.5-7.25c-3.87-2.78-5.8-6.31-5.8-10.59,0-2.41.8-4.46,2.42-6.13,1.61-1.67,3.71-3.07,6.28-4.18s5.32-1.95,8.22-2.51c2.9-.56,5.64-.83,8.22-.83s6.82.05,12.73.14c5.91.1,12.24.23,19.01.42s13.32.33,19.65.42c6.33.1,11.12.14,14.34.14,5.58,0,11.17-.46,16.75-1.39s10.63-2.37,15.14-4.32c4.51-1.95,8.22-4.41,11.12-7.38s4.35-6.5,4.35-10.59c0-5.39-2.37-9.75-7.09-13.1-4.73-3.34-11.6-5.02-20.62-5.02-9.67,0-20.19,1.86-31.58,5.57-11.39,3.72-22.67,7.8-33.83,12.26-11.17,4.46-21.7,8.55-31.58,12.26-9.88,3.72-18.26,5.57-25.13,5.57-3.87,0-7.09-.93-9.67-2.79-2.58-1.85-3.87-4.46-3.87-7.8,0-3.53,1.45-6.87,4.35-10.03,2.9-3.16,6.55-6.22,10.95-9.19s9.18-5.85,14.34-8.64c5.16-2.79,9.93-5.43,14.34-7.94,4.4-2.51,8.05-4.92,10.95-7.24s4.35-4.5,4.35-6.55c0-.93-.48-2.09-1.45-3.48-.97-1.39-3.38-2.09-7.25-2.09-7.09,0-13.53,2.09-19.33,6.27-12.29,8.86-23.41,20.01-36.77,27.26-13.12,7.11-28.46,9.76-43.3,9.29-20.62-.65-40.61-6.81-60.3-12.92-7.08-2.2-14.28-4.45-20.45-8.53-3.59-2.38-6.95-5.64-7.76-9.85-1.19-6.21,3.85-9.58,9.33-9.9,21.71-1.28,47.74-7.51,58.22-28.69,5.53-11.19,6.32-22.81,17.97-29.66C97.66,2.52,111.14,0,124.94,0c7.52,0,13.64.98,18.37,2.93,4.72,1.95,8.7,4.09,11.92,6.41s6.17,4.46,8.86,6.41c2.68,1.95,5.64,3.02,8.86,3.2h.64c3.22,0,5.53-.84,6.93-2.51,1.39-1.67,2.68-3.48,3.87-5.43,1.18-1.95,2.58-3.76,4.19-5.43,1.61-1.67,4.24-2.51,7.9-2.51,4.08,0,9.23,1.16,15.46,3.48,6.23,2.32,12.24,5.48,18.05,9.47,5.8,4,10.74,8.59,14.82,13.79,4.08,5.2,6.12,10.68,6.12,16.44,0,4.83-1.4,8.92-4.19,12.26-2.79,3.34-6.66,5.01-11.6,5.01-5.37,0-9.29-1.34-11.76-4.04-2.47-2.69-4.14-5.94-5-9.75-.86-3.8-1.29-7.8-1.29-11.98s-.43-7.84-1.29-11c-1.5-5.57-3.87-10.4-7.09-14.49-3.22-4.08-7.31-6.13-12.24-6.13-3.01,0-4.94.93-5.8,2.79s-1.13,4.18-.8,6.97c.32,2.79.86,5.81,1.61,9.05.75,3.25,1.18,6.41,1.29,9.47.11,3.06-.32,5.76-1.29,8.08s-3.17,3.86-6.61,4.6c-1.72.37-3.01.56-3.87.56-3.65,0-6.66-1.11-9.02-3.34-2.37-2.23-4.57-4.97-6.61-8.22s-4.08-6.78-6.12-10.59-4.46-7.34-7.25-10.59-6.23-5.99-10.31-8.22c-4.08-2.23-9.13-3.34-15.14-3.34-7.09,0-12.89,1.16-17.4,3.48s-6.76,5.62-6.76,9.89c0,3.53,2.04,5.99,6.12,7.38,4.08,1.39,8.54,2.55,13.37,3.48s9.29,2.09,13.37,3.48,6.12,3.86,6.12,7.38-2.31,6.69-6.93,9.47c-4.62,2.79-9.72,5.57-15.3,8.36-5.59,2.79-10.69,5.81-15.3,9.06-4.62,3.25-6.93,7.29-6.93,12.12,0,3.9,1.5,6.83,4.51,8.78s6.77,2.93,11.28,2.93c9.23,0,16.92-1.39,23.04-4.18s11.81-5.8,17.08-9.05c5.26-3.25,10.68-6.27,16.27-9.06,5.58-2.79,12.35-4.18,20.3-4.18,2.58,0,5.37.61,8.38,1.81,3.01,1.21,4.51,3.76,4.51,7.66,0,1.67-.38,3.16-1.13,4.46-.76,1.3-1.51,2.65-2.25,4.04-.76,1.39-1.51,2.88-2.25,4.46-.76,1.58-1.13,3.48-1.13,5.71,0,2.42,1.07,4.32,3.22,5.71,2.14,1.39,4.83,2.09,8.05,2.09,4.51,0,9.23-.56,14.18-1.67h.02Z"/>
  </g>
</svg>