<?xml version="1.0" encoding="UTF-8"?>
<svg id="Capa_1" data-name="Capa 1" xmlns="http://www.w3.org/2000/svg" viewBox="0 0 595.28 595.28">
  <defs>
    <style>
      .cls-1 {
        fill: #fffeff;
      }

      .cls-2 {
        fill: #ff17fb;
      }
    </style>
  </defs>
  <path class="cls-2" d="M268.85,183.21c68.92-2.77,142.7,16.74,196.93,59.86,95.49,75.93,95.67,197.8.38,274-100.33,80.22-268.85,80.31-369.17,0C1.74,440.81,1.84,319.04,97.38,243.07c48.11-38.25,110.3-57.41,171.47-59.86ZM267.52,208.4c-102.6,4.47-237.48,75.39-214.41,196.79,19.57,103,146.38,150.68,240.1,147.06,101.9-3.94,237.17-72.64,217.52-193.72-17.27-106.42-148.02-154.28-243.21-150.13Z"/>
  <path class="cls-2" d="M442.65,124.69c1.85,8.25,14.01,5.27,19.88,3.3-5.16-8.54-.19-17.73,9.62-18.55l30.75-2.06c9.44-33.69,53.64-19.94,64.01,6.04,9.18,22.99-5.73,49.99-31.8,48.36-2.62-.16-8.64-2.4-10.26-1.65-1.16.53-8.11,7.73-9.95,9.3-12.5,10.68-25.42,21.28-38.91,30.69-12.66,8.83-15.73,12.35-32.35,11.38-36.89-2.14-112.8-30.08-145.28-48.93-4.79-2.78-10.56-6.11-10.76-12.44-.08-2.74,1.72-5.29,1.92-7.29.69-6.82-9.9-35.6-13.34-42.93-.59-1.26-3.62-7.83-4.04-8.22-.73-.68-3.38-.94-4.73-1.57-33.28-15.53-26.88-61.11,8.06-70.65,20.77-5.67,50.18,5.1,49.22,29.99-.14,3.76-1.8,7.28-2.4,10.92,5.25,4.05,10.31,8.35,15.81,12.08,8.12,5.52,23.6,10.23,17.83,22.83-1.12,2.45-3.3,3.76-3.2,7.07.25,7.7,10.95,7.44,11.73,1.46.97-7.34-5.72-7.65-6.62-13.33-2.14-13.51,9.83-13.49,18.69-17.02,11.3-4.5,23.17-13.43,30.96-22.73,6.11-7.3,10.7-23.53,23.22-17.88,9.37,4.22,5.89,13.62,5.93,21.25.06,11.98,3.94,27.75,9.19,38.53,2.29,4.7,10.1,14.59,10.66,18.5,1.24,8.67-5.25,14.8-13.86,13.54ZM301.31,50.98c1.88-3.23-1.53-6.95-4.28-8.36-13.6-6.97-35.1,4.27-26.84,20.88,3.42,6.87,9.83,5.35,15.32,9.2,4.94,3.46,8.23,11.02,10.76,16.41,6.96,14.77,11.32,30.5,15.56,46.21,16.96-1.85,34.08.58,50.61,4.28,34.95,7.8,67.76,23.67,96.99,43.98,15.12-10,29.23-21.47,42.87-33.35,4.19-3.65,14.53-15.17,19.03-16.1,8.85-1.83,10.69,5.22,16.35,5.1,9.66-.22,11.21-13.44,6.37-20.16-2.84-3.93-11.26-9.72-16.22-8.98-3.33.5-.62,3.28-.39,5.03,1.07,7.85-3.02,13.44-10.91,14.21l-29.43,2.06c-6.2,25.71-50.8,28.87-63.82,7.02-4.94-8.29-5.39-17.47-.4-25.85.88-1.48,4.48-5.28,4.49-6.08s-5.11-11.01-5.96-13.26c-2.24-5.92-3.8-12.1-5.3-18.24-4.99,3.99-9.85,8.14-15.29,11.54-2.18,1.36-13.81,6.99-14.24,7.68-.51.82,1.08,5.97,1.1,7.63.46,37.4-55.64,38.81-57.71,2.64-.13-2.21,1.07-9.32.54-10.16-.19-.3-4.91-2.73-6.06-3.54-4.98-3.5-10.04-7.23-14.69-11.16-6.95-5.89-19.89-15.34-12.27-25.5.93-1.24,3.7-2.91,3.82-3.13ZM413.48,181.7c-21.08-9.76-43.09-18.67-66.28-21.88l9.77,4.47c17.17,5.31,36.27,14.42,53.82,17.77.69.13,2.79.94,2.68-.36Z"/>
  <path class="cls-1" d="M267.52,208.4c95.19-4.15,225.93,43.71,243.21,150.13,19.65,121.07-115.63,189.77-217.52,193.72-93.71,3.63-220.53-44.06-240.1-147.06-23.06-121.4,111.82-192.32,214.41-196.79ZM306.71,354.09c6.07,14.04,11.26,29.04,17.84,42.81,6.1,12.75,14.9,16.88,27.77,8.98l116.12-81.4c10.21-7.82,4.46-23.18-8.2-22.82l-139.84,26.43c-8.31-15.97-13.23-33.73-22.32-49.23-8.52-7.33-20.5-.5-19.1,10.48l17.54,41.47-.36,1.68-52.59,9.51-1.26-1.42-15.47-37.56c-5.45-7.26-13.24-7.66-20.62-2.81l-124.38,73.14c-11.03,7.73-4.53,22.96,8.49,21.08l138.45-25.78.97,1.06,20.77,51.48c7.62,10.9,23.18,5.22,21.07-8.48-6.05-16.37-13.73-32.23-19.18-48.76l54.3-9.89ZM390.1,407.21c-7.67,1.58-8.39,10.13-11.18,15.99-25.48,53.53-88.77,65.99-139.12,39.22-8.27-4.4-14.28-10.14-21.64-14.82-12.69-8.07-25.16,7.94-13.79,18.43,18.8,17.34,51.6,29.99,76.87,32.5,40.66,4.04,82.2-13.01,106.66-45.79,5.04-6.75,15.99-25.36,16.34-33.41.34-7.73-6.56-13.69-14.15-12.12Z"/>
  <path class="cls-1" d="M301.31,50.98c-.12.21-2.9,1.89-3.82,3.13-7.61,10.15,5.33,19.61,12.27,25.5,4.64,3.93,9.7,7.66,14.69,11.16,1.16.81,5.88,3.24,6.06,3.54.53.84-.66,7.96-.54,10.16,2.07,36.17,58.17,34.76,57.71-2.64-.02-1.66-1.6-6.81-1.1-7.63.43-.69,12.06-6.31,14.24-7.68,5.45-3.4,10.3-7.55,15.29-11.54,1.5,6.14,3.06,12.32,5.3,18.24.85,2.25,5.98,12.44,5.96,13.26s-3.61,4.6-4.49,6.08c-4.98,8.38-4.54,17.56.4,25.85,13.02,21.85,57.63,18.69,63.82-7.02l29.43-2.06c7.89-.78,11.97-6.37,10.91-14.21-.24-1.75-2.95-4.53.39-5.03,4.96-.74,13.38,5.05,16.22,8.98,4.84,6.72,3.29,19.94-6.37,20.16-5.66.13-7.5-6.93-16.35-5.1-4.5.93-14.84,12.45-19.03,16.1-13.64,11.89-27.75,23.36-42.87,33.35-29.24-20.31-62.04-36.17-96.99-43.98-16.53-3.69-33.64-6.12-50.61-4.28-4.25-15.71-8.61-31.44-15.56-46.21-2.54-5.39-5.83-12.95-10.76-16.41-5.49-3.85-11.91-2.34-15.32-9.2-8.26-16.61,13.25-27.85,26.84-20.88,2.75,1.41,6.16,5.13,4.28,8.36Z"/>
  <path class="cls-1" d="M413.48,181.7c.1,1.3-1.99.49-2.68.36-17.55-3.35-36.65-12.46-53.82-17.77l-9.77-4.47c23.18,3.2,45.2,12.12,66.28,21.88Z"/>
  <path class="cls-2" d="M306.71,354.09l-54.3,9.89c5.45,16.52,13.13,32.39,19.18,48.76,2.11,13.7-13.45,19.38-21.07,8.48l-20.77-51.48-.97-1.06-138.45,25.78c-13.02,1.88-19.52-13.35-8.49-21.08l124.38-73.14c7.38-4.85,15.17-4.45,20.62,2.81l15.47,37.56,1.26,1.42,52.59-9.51.36-1.68-17.54-41.47c-1.4-10.98,10.58-17.82,19.1-10.48,9.09,15.5,14,33.26,22.32,49.23l139.84-26.43c12.66-.36,18.41,15,8.2,22.82l-116.12,81.4c-12.87,7.9-21.68,3.77-27.77-8.98-6.58-13.77-11.77-28.77-17.84-42.81ZM219.94,347.4l-8.1-22.06-1.4-1.05-60.11,35.71,69.6-12.59ZM415.47,333.49l-86.1,16.82,14.81,32.9,71.29-49.72Z"/>
  <path class="cls-2" d="M390.1,407.21c7.59-1.57,14.49,4.39,14.15,12.12-.35,8.05-11.3,26.65-16.34,33.41-24.46,32.78-65.99,49.83-106.66,45.79-25.27-2.51-58.07-15.16-76.87-32.5-11.37-10.49,1.1-26.5,13.79-18.43,7.36,4.68,13.37,10.42,21.64,14.82,50.35,26.78,113.64,14.31,139.12-39.22,2.79-5.86,3.51-14.41,11.18-15.99Z"/>
  <polygon class="cls-1" points="415.47 333.49 344.18 383.21 329.37 350.3 415.47 333.49"/>
  <polygon class="cls-1" points="219.94 347.4 150.33 359.99 210.44 324.28 211.84 325.33 219.94 347.4"/>
</svg>