<?xml version="1.0" encoding="UTF-8"?>
<svg id="Capa_1" xmlns="http://www.w3.org/2000/svg" version="1.1" viewBox="0 0 785 1096.1">
  <!-- Generator: Adobe Illustrator 29.0.1, SVG Export Plug-In . SVG Version: 2.1.0 Build 192)  -->
  <path d="M750,434.1c0-60.3-14-103.9-42.1-130.6-28.1-26.8-77.6-40.1-148.6-40.1h-270.3c-22.9,0-41.4,18.5-41.4,41.4v290.8c0,22.9,18.5,41.4,41.4,41.4h92.7c50.8,0,87.6-9.9,110.5-29.8,22.8-19.9,34.2-51.9,34.2-96.2V18c0-3.5,2.8-6.3,6.3-6.3h1.9c3.5,0,6.3,2.8,6.3,6.3v492.9c0,43.5,11.2,75.4,33.5,95.7,22.3,20.3,58.5,30.4,108.5,30.4h76.3c3.2,0,6.1,2.3,6.5,5.5s-2.5,7.1-6.3,7.1h-76.6c-50,0-86.2,9.6-108.5,28.7-22.3,19.1-33.5,50.4-33.5,94v60.1c0,3.5-2.8,6.3-6.3,6.3h-1.9c-3.5,0-6.3-2.8-6.3-6.3v-60.1c0-44.3-11.6-75.8-34.8-94.5-23.2-18.7-59.8-28.1-109.8-28.1h-92.7c-22.9,0-41.4,18.5-41.4,41.4v315c0,18.3,5.5,33.6,16.4,45.8,11,12.2,34,18.3,69,18.3h69.7c4.4,0,6.6,1.5,6.6,4.6v3.4c0,3.1-2.2,4.6-6.6,4.6H18.8c-3.5,0-5.2-1.5-5.2-4.6v-3.4c0-3,1.8-4.6,5.2-4.6h71c35.1,0,57.9-6.1,68.4-18.3,10.5-12.2,15.8-27.5,15.8-45.8V327.5c0-21.4-4.2-37.4-12.5-48.1-8.4-10.7-27.8-16-58.5-16H18.8c-3.5,0-5.2-1.5-5.2-4.6v-3.4c0-3.1,1.8-4.6,5.2-4.6h626c19.2-.2,35.8-.9,53.7-6,27.6-8.2,51.3-25.1,54.2-54.8s1-13.3,1.3-24,0-3.8,1-5.4c1.4-2.5,5.3-2.6,7.8-1.7,1,.4,1.7,1.1,2.2,2s.8,2.2.8,3.3v294.1c0,2.1-.7,4.2-2.1,5.8s-.3.3-.5.5c-2.4,2.3-7.5,2.5-10.2.4-.4-.3-.7-.6-1-.9-1.4-1.6-2.1-3.7-2.1-5.8v-23.9h0s0,0,0,0Z"/>
</svg>