<svg xmlns="http://www.w3.org/2000/svg" data-name="Capa 1" viewBox="0 0 1080 1080"><path d="M880.71 433c0-57.05-13.26-98.24-39.79-123.5-26.53-25.3-73.34-37.94-140.49-37.94H444.88c-21.61 0-39.17 17.52-39.17 39.17v274.92c0 21.61 17.52 39.17 39.17 39.17h87.66c48.05 0 82.87-9.4 104.44-28.15 21.56-18.8 32.32-49.1 32.32-91V39.59c0-3.29 2.68-5.97 5.97-5.97h1.76c3.29 0 5.97 2.68 5.97 5.97V505.6c0 41.15 10.58 71.32 31.71 90.47 21.12 19.15 55.34 28.72 102.59 28.72h72.38c3.29 0 5.97 2.68 5.97 5.97 0 3.29-2.68 5.97-5.97 5.97H817.3c-47.25 0-81.47 9.05-102.59 27.1-21.12 18.05-31.71 47.69-31.71 88.84v56.87c0 3.29-2.68 5.97-5.97 5.97h-1.76c-3.29 0-5.97-2.68-5.97-5.97v-56.87c0-41.9-10.98-71.67-32.94-89.37-21.96-17.7-56.57-26.53-103.82-26.53h-87.66c-21.61 0-39.17 17.52-39.17 39.17v297.8c0 17.35 5.18 31.8 15.55 43.35 10.36 11.55 32.1 17.35 65.26 17.35h65.92c4.13 0 6.24 1.45 6.24 4.35v3.25c0 2.9-2.06 4.35-6.24 4.35H189.32c-3.34 0-4.96-1.45-4.96-4.35v-3.25c0-2.85 1.67-4.35 4.96-4.35h67.15c33.16 0 54.72-5.75 64.65-17.35 9.97-11.55 14.93-26 14.93-43.35V332.21c0-20.2-3.95-35.4-11.81-45.5-7.91-10.1-26.31-15.15-55.34-15.15h-79.58c-3.34 0-4.96-1.45-4.96-4.35v-3.25c0-2.9 1.67-4.35 4.96-4.35h591.87c20.73 0 37.29-1.8 49.76-5.4 12.43-3.6 23.19-9.05 32.32-16.25 9.93-8.65 15.94-18.23 18.05-28.72 2.06-10.45 3.12-21.48 3.12-33.07 0-2.15 1.23-3.25 3.73-3.25h3.73c2.5 0 3.73 1.1 3.73 3.25v281.68c0 3.6-2.06 5.4-6.24 5.4h-2.5c-4.17 0-6.24-1.8-6.24-5.4v-24.9l.04.04Z"/></svg>