<?xml version="1.0" encoding="UTF-8"?>
<svg id="FONCHITAS" xmlns="http://www.w3.org/2000/svg" version="1.1" viewBox="0 0 1049.2 251.6">
  <!-- Generator: Adobe Illustrator 29.0.1, SVG Export Plug-In . SVG Version: 2.1.0 Build 192)  -->
  <path id="F" d="M158.6,90.9c0-13-3-22.4-9.1-28.1-6-5.8-16.7-8.6-32-8.6h-58.2c-4.9,0-8.9,4-8.9,8.9v62.6c0,4.9,4,8.9,8.9,8.9h20c10.9,0,18.9-2.1,23.8-6.4,4.9-4.3,7.4-11.2,7.4-20.7V1.4C110.4.6,111,0,111.8,0h.4C112.9,0,113.5.6,113.5,1.4v106.1c0,9.4,2.4,16.2,7.2,20.6,4.8,4.4,12.6,6.5,23.4,6.5h16.5c.8,0,1.4.6,1.4,1.4h0c0,.8-.6,1.4-1.4,1.4h-16.5c-10.8,0-18.6,2.1-23.4,6.2s-7.2,10.9-7.2,20.2v12.9c0,.8-.6,1.4-1.4,1.4h-.4c-.8,0-1.4-.6-1.4-1.4v-12.9c0-9.5-2.5-16.3-7.5-20.4-5-4-12.9-6-23.6-6h-20c-4.9,0-8.9,4-8.9,8.9v67.8c0,3.9,1.2,7.2,3.5,9.9,2.4,2.6,7.3,3.9,14.9,3.9h15c.9,0,1.4.3,1.4,1v.7c0,.7-.5,1-1.4,1H1.1c-.8,0-1.1-.3-1.1-1v-.7c0-.6.4-1,1.1-1h15.3c7.6,0,12.5-1.3,14.7-3.9,2.3-2.6,3.4-5.9,3.4-9.9V68c0-4.6-.9-8.1-2.7-10.4-1.8-2.3-6-3.5-12.6-3.5H1.1c-.8,0-1.1-.3-1.1-1v-.7c0-.7.4-1,1.1-1h134.8c4.7,0,8.5-.4,11.3-1.2,2.8-.8,5.3-2.1,7.4-3.7,2.3-2,3.6-4.2,4.1-6.5.5-2.4.7-4.9.7-7.5s.3-.7.9-.7h.9c.6,0,.9.2.9.7v64.1c0,.8-.5,1.2-1.4,1.2h-.6c-.9,0-1.4-.4-1.4-1.2v-5.7h0Z"/>
  <path id="O" d="M253.5,155.5c2.8,0,5.4.4,7.7,1.3,2.3.9,4.3,2,5.9,3.5,1.7,1.5,3.1,3.3,4,5.4.8,1.7,1.2,3.6,1.3,5.5,0,3.4-.9,6.5-3,9.4-2,2.8-4.2,5.2-6.5,7.2-2.8,2.4-5.9,4.6-9.3,6.5-.1,0-.3.2-.3.4-4.8,27.6-24.6,50.8-53.2,55.1-19.6,3-40.4-4-54.2-18.2-1.2-1.2-2.4-2.5-3.9-3.3-1.5-.8-3.2-1.1-4.9-1.4-11.7-2.1-24.8-6.6-27.4-19.6-.7-3.3-.4-6.7.5-9.8,3.3-11,12.9-17.7,23.1-21.1,2.5-.8,5.1-1.6,7-3.4s2.3-3.6,3.1-5.5c6.6-14.7,22.1-27.7,39-26.2,1.3.1,2.6.3,3.9,0s2.5-.9,3.7-1.4c19.8-9.7,47.9-4.9,58.6,15.6.1.2.4.4.6.3,1.5-.2,2.9-.4,4.1-.4h0ZM113.6,210.9c2.1,4.5,6.1,8,10.6,10.2,5.5,2.7,11.6,3.8,17.7,4.5-7.2-14.3-8.4-31.5-3.1-46.6.2-.6-9.3,2.4-9.7,2.6-4.3,2.1-8.4,4.7-11.6,8.4-4.2,4.8-6.5,11.5-5,17.7.3,1.1.7,2.1,1.1,3.1ZM192.4,145.3c4.2,3.2,4.4,10.1,1.5,14.6-3.1,4.8-8.6,7.5-13.9,9.4-7.5,2.7-15.4,4.3-23.4,4.9-2.6.2-5.3.3-7.4,1.7-4.5,2.9-2.6,13.8-2.2,18.2.2,2.5.6,5.1,1.2,7.8,1.6,7.6,5,14.6,10.3,20.3.7.7,1.4,1.4,2.3,1.8,1.2.5,2.6.2,3.9-.1,13.8-3.1,27.4-7,40.8-11.6,2.6-.9,5.3-1.9,7.2-3.9,5.9-6,5.3-20.5,7.5-28.5,2.2-7.8,6.3-15.9,13.4-20.2-4.6-5.3-11.9-9.9-18.2-12.8-7.6-3.4-15.8-4.2-23.9-2.1.3.2.6.4.8.6h0s0,0,0,0ZM185.2,145.4c-.2-.1-.4-.3-.6-.4-1.5-.9-3.2-1.3-5-1.2-7.6.4-14.5,4.7-19.7,10.2-4.6,5-8,11.1-11.1,17.2.3-.6,12.5-1.9,14.1-2.4,4.9-1.5,10-3.5,14.3-6.4,4.3-2.8,14.6-11.9,8-17h0ZM197.1,230.2c6.3-4.2,11.5-10.1,14.8-17-8,2.8-16.1,5.4-24.3,7.7-7.3,2-17.4,2.6-23.8,6.3,2.5,2.7,5.8,4.5,9,6.3,3.1,1.7,6.8,3.3,11.2,4.8,4.4,1.4,9.3,2.1,14.6,2.1s9.9-.6,14-1.9c4.2-1.3,7.9-2.9,11.3-5,3.4-2.1,6.3-4.4,8.9-7.1,2.6-2.7,4.8-5.5,6.7-8.2,4.5-6.6,7.9-13.7,9.7-21.4-10.3,4.7-20.6,9.3-30.9,14-1.6.7-3.2,1.5-4.5,2.6-1.6,1.4-2.6,3.2-3.7,5-4.9,7.6-12.6,13.5-21.2,16.2,2.9-1.1,5.7-2.6,8.2-4.3h0ZM242.9,163.6c-2.9,1.5-5.5,3.5-7.7,5.7-5.4,5.4-9.1,12.1-12.1,19.2-2.2,5.2-4.3,12-4.8,17.4,15.8-3.5,35.1-19.5,42.5-31.6,1.7-2.7,2-6.2.4-8.9-3.5-6.2-13.1-4.4-18.2-1.8h0Z"/>
  <path id="N" d="M260.8,123.8c0,1.6-1.2,2.9-2.7,3.2-1.7.3-3.9.2-5.5-1.5l-50.1-63.4c-1.2-1.5-4-.8-4,1v57.1c0,2.6.5,4.3,1.6,5.3,1.1.9,2.9,1.4,5.6,1.4h2.4c.2,0,.4.2.4.5v.3c0,.3-.1.4-.4.4h-23.1c-.5,0-.7-.1-.7-.4v-.3c0-.3.2-.5.7-.5h2.4c2.4,0,4.2-.5,5.3-1.5,1.2-1,1.7-2.7,1.7-5.2v-61.7c0-1.2,1.4-6-13.9-5.2h-.4c-1.2,0-1.1-1.6,0-1.6h24.1c.9,0,1.8.4,2.3,1l46.7,58.2c1.2,1.5,4,.8,4-1v-51.3c0-2.1-.5-3.5-1.6-4.3-1.1-.8-2.9-1.2-5.6-1.2h-2.2c-.5,0-.7-.2-.7-.6v-.3c0-.3.2-.4.7-.4h23c.3,0,.5.1.5.4v.3c0,.4-.2.6-.5.6h-2.4c-2.4,0-4.2.4-5.4,1.2s-1.8,2.2-1.8,4.3l-.5,65.3h0Z"/>
  <path id="C" d="M296.4,84.8c-2,.4-4,1.1-5.7,2.2-4.2,2.8-6.2,8.5-5.1,13.4.9,4.1,4.2,7.8,8.4,8.5,2.5.4,5,0,7.5-.8,4-1.2,7.9-2.8,11.7-4.6,6.7-3.3,13.1-7.2,19.3-11.6,4-2.9,8.5-6.2,13.8-3.8,1,.5,1.9,1.1,2.7,1.9,3.6,3.7,3.8,8.8,3.2,13.5-.7,5.3-2.4,10.5-5.4,14.8-3.5,5-8.5,8.6-13.4,12.2-.3.2-.6.4-.8.6-1.9,1.5-8.8,6.2-10,7.1-3.6,2.5-7.2,5.1-10.8,7.6-6.5,4.6-14.4,8.9-19.1,15.4-1.1,1.6-2,3.3-2.5,5.2-2.3,9.9,7.4,15.4,15.8,15.6,5.2.1,10.5-1.1,15-3.7,5.1-2.8,9.2-6.9,13.5-10.7,5-4.3,10.6-8.3,17.4-8.8,2.6-.2,5.3.4,7.7,1.6,7.6,3.9,7.4,12.1,4.4,18.3-4.8,9.9-13.5,16.4-21.8,23.1-5,4.1-9.7,9.6-9.6,16.1.2,8.4,8.2,14.3,15.9,17.5,10,4.2,21.2,6.2,31.9,4.1s20.7-8.7,25.5-18.5c8.1-16.5-2.9-41.7,11-55.2,4.1-4,9.9-5.8,15.6-5.8s10.8,1.6,14.5,5.4c4.7,4.8,5.6,12.2,4.5,18.8-1.6,9.3-6.7,17.6-12.6,24.9-12.3,15.1-28.5,26.9-46.7,33.9-40.1,15.5-88,11.4-117.5-22.4-3.2-3.7-6.2-7.8-7.9-12.5-1.6-4.7-1.7-10.1.6-14.4,2.3-4.2,6.5-7,9-11,5.5-8.7.9-21.2-7.8-26.5-2.2-1.3-4.5-2.3-6.5-4-3-2.6-3.5-6.1-1.4-9.3,8-12.2,23.6-8.5,35.6-12.2,3.4-1,6.6-2.8,8.9-5.4.5-.6,1-1.3,1.2-2.2s-.1-1.8-.8-2.2c-.6-.4-1.3-.3-2-.2-3.5.4-7,1.6-10.4,1-2.4-.4-4.6-1.6-6.5-3.1-4.5-3.6-7.5-8.9-9.2-14.4-4-13.6-3.2-29.5,4-41.9,2.6-4.5,6-8.5,10.1-11.9,7.4-6.1,14.7-11.7,19.2-13.4,9.7-3.8,19.7-5.6,30.1-5.3,6.5.2,12,1.3,16.5,3.3,4.5,2,8.6,4.2,12.4,6.5,3.7,2.4,7.3,4.5,10.7,6.5,3.4,2,7.3,3,11.6,3.1,4.1.1,7.4-.7,9.7-2.3s4.5-3.5,6.7-5.5c2.1-2,4.6-3.8,7.5-5.3,2.9-1.6,6.9-2.3,12.1-2.1,6.7.2,12.4,2.2,17.1,6.1,4.7,3.8,8.4,8.5,11.3,14.1s4.9,11.4,6.2,17.6c1.2,6.2,1.8,11.7,1.6,16.6-.2,6.8-2,12.4-5.4,16.7s-8.5,6.3-15.5,6.1c-5-.2-9.2-1.7-12.6-4.6s-5-6.9-4.9-12c.1-4.5,1-8.2,2.8-11.1,1.7-2.9,3.6-5.7,5.8-8.3,2.1-2.7,4.1-5.6,5.8-8.9,1.7-3.3,2.7-7.4,2.8-12.5.1-3.9-1.1-7.3-3.8-10.2-2.6-2.9-6.4-4.4-11.4-4.6-4.6-.1-7.9.9-10,3.2-2.1,2.3-3.7,5.2-4.8,8.6s-1.8,7.2-2.3,11.2c-.4,4-1.2,7.7-2.3,11.2-1.1,3.5-2.7,6.4-5,8.6-2.2,2.3-5.8,3.3-10.5,3.2-3.5,0-6.3-1.4-8.5-3.8-2.2-2.4-4.2-5.4-6.1-9s-3.7-7.5-5.7-11.7c-1.9-4.2-4.3-8.2-7-11.8-2.7-3.6-6.2-6.6-10.3-9.1s-9.5-3.8-16-4c-3,0-6,.1-9,.6s-5.6,1.2-8,2.1c-2.4.9-4.4,2-6,3.2-1.6,1.2-2.4,2.6-2.4,4.2-.1,3.7,1.3,6.3,4.2,7.7s6,2.6,9.4,3.3c3.3.8,6.5,1.8,9.4,2.9,2.9,1.2,4.3,3.4,4.2,6.7,0,3.1-2.1,5.6-5.9,7.4-10.6,5-23.1,6.6-34.6,8.3-1.4.2-2.9.4-4.3.7h0s0,0,0,0Z"/>
  <path id="HI" d="M583.3,229.6h-49.4c-.6,0-.9-.2-.9-.6v-.5c0-.4.3-.6.9-.6h11.2c2.4,0,4.4-.3,5.8-1s2.4-1.4,3.1-2.4,1.1-1.9,1.3-2.9c.2-1,.3-1.9.3-2.6v-41c0-4.7-3.8-8.6-8.5-8.6h-11.6c-7,0-12,1.3-15.2,4-3.2,2.7-4.8,7-4.8,13.1v9.2h-2v-9.2c0-6.1-1.6-10.4-4.8-13.1-3.2-2.6-8.2-4-15.2-4h-11.7c-4.7,0-8.5,3.8-8.5,8.6v41c0,.7,0,1.6.3,2.6.2,1,.6,2,1.3,2.9.7,1,1.7,1.8,3.1,2.4s3.3,1,5.8,1h11.3c.5,0,.7.2.7.6v.5c0,.4-.2.6-.7.6h-53.6c-.5,0-.7-.2-.7-.6v-.5c0-.4.2-.6.7-.6h11.3c2.4,0,4.4-.3,5.8-1,1.4-.6,2.4-1.4,3.1-2.4.7-1,1.1-1.9,1.3-2.9s.3-1.9.3-2.6v-77.6c0-.9,0-1.8-.3-2.9-.2-1.1-.6-2-1.3-2.9-.7-.9-1.7-1.7-3.1-2.3s-3.3-1-5.8-1h-62.8c-.5,0-.7-.2-.7-.6v-.5c0-.4.2-.6.7-.6h105c.5,0,.7.2.7.6v.5c0,.4-.2.6-.7.6h-11.3c-2.4,0-4.4.3-5.8,1-1.4.6-2.4,1.4-3.1,2.3-.7.9-1.1,1.9-1.3,2.9s-.3,2-.3,2.9v17.8c0,4.7,3.8,8.6,8.5,8.6h11.7c7.1,0,12.2-1.3,15.3-4s4.7-3.4,4.7-9.7v-67.7h2v67.7c0,6.1,1.6,6.8,4.8,9.6,3.2,2.8,8.2,4.1,15.2,4.1h11.6c4.7,0,8.5-3.8,8.5-8.6V60.5c0-.8,0-1.8-.3-2.9-.2-1.1-.6-2-1.3-3-.7-.9-1.7-1.7-3.1-2.3-1.4-.6-3.3-1-5.8-1h-11.2c-.6,0-.9-.2-.9-.6v-.5c0-.4.3-.6.9-.6h48.4c.6,0,1,0,1,.4v1c0,.4-.4.4-1,.4h-6.2c-2.4,0-4.4.3-5.8,1s-2.4,1.4-3.1,2.3-1.1,1.9-1.3,3c-.2,1.1-.3,2-.3,2.9v158.4c0,.7,0,1.6.3,2.6.2,1,.6,2,1.3,2.9.7,1,1.7,1.8,3.1,2.4,1.4.6,3.3,1,5.8,1h7.2v1.8Z"/>
  <path id="T" d="M680.1,111.5c.5-2.4,4.6-14.9,5-16,1.9-5.2,1.3-3.4,3.6-8.4,4.5-9.8,10.1-18.7,16.8-27-8-4.2-17.9-6.3-26.6-8.9-7.6-2.1-15.9-4-24.7-5.8-5.7-1.2-11.4-2-17.2-2.4-6.2-.4-18.4-2.7-18.2,5,0,.3,0,.6.2.9.5,1.1,1.6,1.8,2.8,2.3,3.8,1.7,8.1,2,11.5,4.6,1.4,1.1,2.5,2.6,2.8,4.3.9,4.6-3.5,7.8-7.3,10-3.4,1.9-6.7,3.9-10.1,5.8-3.9,2.2-8.3,5.2-8,10,.1,1.8,1,3.5,2.2,4.8,2.5,2.7,6.2,3.6,9.7,3.9,9.6.8,19.2-2.7,27-8.4,7.7-5.7,13.7-13.6,18.5-21.9-2.9,11-9.3,21.1-17.9,28.5-8.6,7.4-19.6,12.1-30.9,13.4-6.8.7-14.1.1-19.8-3.6-5.8-3.7-9.5-11.2-7.3-17.7,1.7-4.9,6.3-8.6,10.8-10.9,5.3-2.7,11.2-4.2,16.5-6.9,1.6-.8,3.3-2,3.1-4.2,0-1-.6-2-1.4-2.7-1.9-1.7-4.4-1.9-6.8-2.1-5.8-.7-12.4-2.9-13.6-9-.7-3.3.6-6.6,2.9-9.1,4-4.2,9.9-5.3,15.6-5.7,11.6-.8,23.7.7,35,2.9,10.1,2,19.4,4.1,27.9,6.4,9.6,2.8,19,6.1,28.2,9.7,4.5-4,9.7-7.6,15.7-10.8,5-2.7,11-5.1,18.1-7.2s15-3.3,23.8-3.3,10.9.4,15.8,1.3,9.1,2.1,12.7,3.8,6.4,3.8,8.6,6.1c2.2,2.4,3.2,5.2,3.2,8.4.2,5.7-2.3,10.4-7.3,14.1-5.1,3.7-13.7,5.5-26,5.5s-17.3-.5-24.9-1.4c-7.6-.9-14.4-2-20.2-3.1-2.9-.6-6-1.1-8.8-1.8-3.9-1-7.8-4-12.2-.4-.6.5-1.1,1.1-1.6,1.6-11.1,13.5-16.8,29.6-21.3,46.4-4,15-10,37-14.8,51.8-5,15.3-9.5,30.8-16,45.5-5.9,13.6-14.5,31.3-28.4,38.4-5,2.5-11,3.4-16.2,1.5-7.5-2.7-12.2-10.5-14.2-18.3-3.9-15.1-4.8-32-4.1-47.6,1-22.7,9.2-47.7,29.8-59.9,5.2-3.1,21.3-11.4,25.4-3.4.8,1.5.9,3.2,1,4.9.3,9.8-3.2,19.2-7.6,27.9-4.7,9.2-9.9,18.2-14.9,27.1,1.9-5.9,4.3-11.7,6.3-17.6,1.3-3.9,6.5-17.1,1.2-19.7-.9-.4-1.9-.4-2.9-.3-4,.5-7.7,2.4-10.8,4.9-6.3,5.1-10.6,12.5-12.5,20.4-3.5,14.3-.2,35,10,46.2,3,3.3,7.3,6,11.8,5.5,8.2-1,13.8-11.3,17.5-17.7,4.8-8.5,8.4-17.6,12.2-26.6,6.4-15,11.3-30.8,15.9-46.4.8-2.7,4.5-15,5.2-17.7h0s0,0,0,0ZM782.3,43.3c-4.9-2.7-10.8-3.4-16.4-3.4-16.8,0-33.5,5.8-46.8,15.9.9-.7,11.4,3.3,13,3.6,4.5,1,9,1.7,13.6,2.2,10.2,1.1,20.5,2.1,30.8.5,2.7-.4,5.5-1,7.8-2.4,2.3-1.4,4.3-3.8,4.6-6.5.5-4-2.6-7.6-6-9.6-.2,0-.3-.2-.5-.3,0,0,0,0,0,0Z"/>
  <path id="A" d="M743.2,228.4c2.2,0,3.9-.2,5.2-.7,1.3-.4,2.2-1,2.8-1.7s.9-1.5.9-2.4c0-.9,0-1.8-.2-2.6-.5-1.4-1-3.1-1.5-4.9-.5-1.8-1.1-3.7-2-5.7-1.2-3.3-3.2-6.1-5.9-8.7s-6.5-3.8-11.5-3.8-6,.8-8.6,2.4c-2.7,1.6-5.2,3.6-7.5,6-2.4,2.4-4.7,5-6.9,7.7-2.2,2.8-4.6,5.3-7,7.7-2.4,2.4-5,4.4-7.7,6s-5.7,2.4-9,2.4-7.4-1.1-10.1-3.3-4-5.6-4-10.4.5-5.9,1.5-9.3c1-3.4,2.3-7,3.8-10.9,1.6-3.8,3.3-7.9,5.4-12.1s4-8.6,6-13c.9-2.1,2-4.5,3.3-7.3,1.2-2.8,2.5-5.7,3.9-8.7,1.3-3,2.7-5.9,4-8.8s2.4-5.3,3.3-7.4c.5-1.3.9-2.2,1.1-2.9s.3-1.4.3-2.1c0-1.6-1-2.4-3.1-2.4h-1.6c-.4,0-.6-.1-.6-.4h0c0-.3.2-.4.6-.4h52.4c.3,0,.5,0,.5.3h0c0,.4-.2.6-.5.6h-9.3c-2.3,0-3.7.6-4.4,1.9-.6,1.3-.6,2.9,0,4.8,4.4,14.1,8.8,28.1,13.2,42.1,4.5,13.9,9.3,27.9,14.5,41.8.8,2.3,1.9,3.9,3.2,4.9s3.6,1.5,6.8,1.5h4.8c.3,0,.5,0,.5.3v.3c0,.2-.2.3-.5.3h-41.1c-.2,0-.3,0-.3-.3v-.3c0-.2,0-.3.3-.3h5.3,0s0,0,0,0ZM689.4,173.3c-.9,0-1.6.5-2,1.3-.7,1.6-1.6,3.5-2.5,5.6-1.2,2.7-2.5,5.6-3.7,8.6s-2.2,5.9-3.1,8.9-1.3,5.5-1.3,7.8c0,3.7,1.2,6.4,3.6,7.9s5,2.4,7.9,2.4,3.9-.4,5.9-1.3c2-.9,4-2,6.1-3.3,2.1-1.4,4.2-2.9,6.4-4.5,1.9-1.4,3.8-2.7,5.7-4,.6-.4,1-1.1,1-1.8v-12.9c0-5.2-1.3-8.9-4-11.2-2.7-2.3-7-3.5-12.9-3.5h-7ZM700.7,144.4c-.9,2.1-2,4.6-3.3,7.6s-2.8,6.3-4.4,9.8c-1.1,2.6-2.2,5.1-3.3,7.6-.6,1.4.4,3,2,3h4.8c6.1,0,10.5-1.2,13.1-3.5,2.6-2.4,3.9-6.2,3.9-11.5v-21.2c0-1.4-1.2-2.4-2.6-2.1-1.2.2-2.4.6-3.6,1.1-1.9.8-3.5,2.6-4.8,5.3-.3.5-.9,1.9-1.8,3.9h0ZM733.3,172.5c1.5,0,2.5-1.4,2.1-2.8-1.7-5.4-3.3-10.5-4.9-15.2-1.8-5.5-3.2-10-4.4-13.4-.7-2.2-2-3.9-3.7-5.2-1.3-1-3.2-1.6-5.6-1.9-1.3-.1-2.5.8-2.5,2.1v21.3c0,5.2,1.3,9,4,11.4,2.7,2.4,6.9,3.7,12.8,3.7h2.2ZM739,181c-.6-2.1-1.3-4.1-1.9-6.2-.3-.9-1.1-1.5-2.1-1.5h-3.9c-6.1,0-10.5,1.1-13,3.4-2.5,2.3-3.8,6-3.8,11.3v10c0,1.6,1.7,2.6,3.2,1.9,1.7-.8,3.3-1.6,4.9-2.2,2.7-1,5.5-1.6,8.4-1.6s4.3.2,5.7.6c1.4.4,2.6.6,3.7.6h0c.9,0,1.8-.6,2-1.5h0c.2-.7.2-1.4.2-2.3,0-.8-.2-1.7-.4-2.6-.2-.9-.4-1.7-.6-2.3-.8-2.5-1.6-5.1-2.4-7.7h0s0,0,0,0Z"/>
  <path id="S" d="M965.5,128.1c4.9-1.1,10-2.3,15.3-3.6s10.7-2.5,16.4-3.6,11.5-1.7,17.6-1.7c9.7,0,17.8,2.2,24.5,6.7,6.7,4.5,10,10.7,10,18.7s-1.3,9.4-4,13.2c-2.7,3.8-6.2,7.1-10.5,9.9-4.3,2.8-9.2,5.1-14.7,7-5.5,1.9-11.1,3.4-16.9,4.7-6.2,1.3-12.3,2.2-18.2,2.6-5.9.5-11.2.9-15.8,1.4-4.6.5-8.4,1.2-11.4,2.1s-4.7,2.5-5.2,4.7c-.6,3.2.9,5.6,4.7,7.4,3.8,1.8,8.1,3.5,12.9,5.3,4.8,1.8,9.3,3.9,13.5,6.6s6.3,6.3,6.3,11.1-2.4,8.6-7.1,12.3c-4.7,3.7-10.5,6.9-17.4,9.6-6.9,2.7-14.1,4.7-21.8,6.1-7.6,1.4-14.3,2.1-20.1,2.1-44.6,0-92.5-20.1-131.1-41-14.4-7.8-31.8-20.6-26.3-39.5,2.8-9.4,11.2-16.9,20.8-18.9,4.7-1,9.8-.7,14.2,1.2,5.4,2.4,9.6,7,13,11.9,16.3,23.2,24.2,45,49.6,60.4,23.9,14.6,54,22.8,82,18.1,4.4-.7,9-1.7,13.7-2.9,4.7-1.2,9.1-2.7,13-4.6,4-1.9,7.2-4,9.7-6.6,2.5-2.5,3.7-5.3,3.7-8.5s-1.9-4.7-5.8-6.4c-3.9-1.7-8.7-3.2-14.5-4.7-5.8-1.5-12.1-2.9-19-4.3-6.9-1.4-13.2-3.1-19-5.1s-10.6-4.5-14.5-7.2c-3.9-2.8-5.8-6.3-5.8-10.6s.8-4.5,2.4-6.1c1.6-1.7,3.7-3.1,6.3-4.2s5.3-1.9,8.2-2.5c2.9-.6,5.6-.8,8.2-.8s6.8,0,12.7.1c5.9.1,12.2.2,19,.4s13.3.3,19.7.4c6.3.1,11.1.1,14.3.1,5.6,0,11.2-.5,16.8-1.4s10.6-2.4,15.1-4.3c4.5-1.9,8.2-4.4,11.1-7.4s4.3-6.5,4.3-10.6-2.4-9.8-7.1-13.1c-4.7-3.3-11.6-5-20.6-5s-20.2,1.9-31.6,5.6c-11.4,3.7-22.7,7.8-33.8,12.3-11.2,4.5-21.7,8.6-31.6,12.3-9.9,3.7-18.3,5.6-25.1,5.6s-7.1-.9-9.7-2.8c-2.6-1.9-3.9-4.5-3.9-7.8s1.5-6.9,4.3-10c2.9-3.2,6.5-6.2,11-9.2s9.2-5.8,14.3-8.6c5.2-2.8,9.9-5.4,14.3-7.9,4.4-2.5,8-4.9,11-7.2s4.3-4.5,4.3-6.6-.5-2.1-1.5-3.5c-1-1.4-3.4-2.1-7.2-2.1-7.1,0-13.5,2.1-19.3,6.3-12.3,8.9-23.4,20-36.8,27.3-13.1,7.1-28.5,9.8-43.3,9.3-20.6-.6-40.6-6.8-60.3-12.9-7.1-2.2-14.3-4.4-20.5-8.5-3.6-2.4-7-5.6-7.8-9.8-1.2-6.2,3.8-9.6,9.3-9.9,21.7-1.3,47.7-7.5,58.2-28.7,5.5-11.2,6.3-22.8,18-29.7,12-7,25.4-9.6,39.2-9.6s13.6,1,18.4,2.9c4.7,2,8.7,4.1,11.9,6.4s6.2,4.5,8.9,6.4c2.7,2,5.6,3,8.9,3.2h.6c3.2,0,5.5-.8,6.9-2.5,1.4-1.7,2.7-3.5,3.9-5.4,1.2-2,2.6-3.8,4.2-5.4,1.6-1.7,4.2-2.5,7.9-2.5s9.2,1.2,15.5,3.5c6.2,2.3,12.2,5.5,18,9.5,5.8,4,10.7,8.6,14.8,13.8,4.1,5.2,6.1,10.7,6.1,16.4s-1.4,8.9-4.2,12.3c-2.8,3.3-6.7,5-11.6,5s-9.3-1.3-11.8-4c-2.5-2.7-4.1-5.9-5-9.8-.9-3.8-1.3-7.8-1.3-12s-.4-7.8-1.3-11c-1.5-5.6-3.9-10.4-7.1-14.5-3.2-4.1-7.3-6.1-12.2-6.1s-4.9.9-5.8,2.8-1.1,4.2-.8,7c.3,2.8.9,5.8,1.6,9,.8,3.2,1.2,6.4,1.3,9.5.1,3.1-.3,5.8-1.3,8.1s-3.2,3.9-6.6,4.6c-1.7.4-3,.6-3.9.6-3.7,0-6.7-1.1-9-3.3-2.4-2.2-4.6-5-6.6-8.2s-4.1-6.8-6.1-10.6-4.5-7.3-7.2-10.6-6.2-6-10.3-8.2c-4.1-2.2-9.1-3.3-15.1-3.3s-12.9,1.2-17.4,3.5-6.8,5.6-6.8,9.9,2,6,6.1,7.4c4.1,1.4,8.5,2.5,13.4,3.5s9.3,2.1,13.4,3.5,6.1,3.9,6.1,7.4-2.3,6.7-6.9,9.5c-4.6,2.8-9.7,5.6-15.3,8.4-5.6,2.8-10.7,5.8-15.3,9.1-4.6,3.2-6.9,7.3-6.9,12.1s1.5,6.8,4.5,8.8,6.8,2.9,11.3,2.9c9.2,0,16.9-1.4,23-4.2s11.8-5.8,17.1-9.1c5.3-3.2,10.7-6.3,16.3-9.1,5.6-2.8,12.3-4.2,20.3-4.2s5.4.6,8.4,1.8c3,1.2,4.5,3.8,4.5,7.7s-.4,3.2-1.1,4.5c-.8,1.3-1.5,2.7-2.2,4-.8,1.4-1.5,2.9-2.2,4.5-.8,1.6-1.1,3.5-1.1,5.7s1.1,4.3,3.2,5.7c2.1,1.4,4.8,2.1,8,2.1s9.2-.6,14.2-1.7h0Z"/>
</svg>