<?xml version="1.0" encoding="UTF-8"?>
<svg id="Capa_1" data-name="Capa 1" xmlns="http://www.w3.org/2000/svg" viewBox="0 0 1385.83 471.06">
  <defs>
    <style>
      .cls-1 {
        fill: #ffe700;
      }
    </style>
  </defs>
  <g>
    <path d="M604.78,168.19c6.85.33,13.62,1.08,20.18.87,10.08-.31,19.23-3.07,26.8-9.12,1.77-1.42,3.38-3.12,4.8-4.94,2.02-2.59,2.67-5.83.94-9.68-1.94-4.31-5.01-7.37-9.2-7.97-3.09-.45-6.26-.52-9.16-.02-7.86,1.36-15.53,3.29-23.39,4.65-9.56,1.66-19.4,1.44-29.67-2.6-9.36-3.68-17.46-9.91-24.62-17.96-11.32-12.72-20.15-26.89-24.99-43-7.23-24.04-3.27-43.53,11.35-57.95,13.4-13.22,30.29-19.37,50.49-18.05,1.95.13,3.93.56,5.89.73,1.26.11,1.93.64,2.47,2.08,6.12,16.25,12.31,32.49,18.48,48.73l.33,1.21c-5.18-.21-10.33-.66-15.37-.56-9.19.18-17.53,2.52-24.37,8.09-3.02,2.45-5.61,5.34-5.9,10.04-.38,6.12,4.36,12.92,10.14,13.63,4.14.5,8.27,0,12.19-.67,8.82-1.52,17.33-4.05,26.27-5.07,20.03-2.28,37.43,7.13,52.3,25.9,9.35,11.81,16.67,24.6,20.66,38.84,6.62,23.59,2.69,42.81-11.73,56.77-15.41,14.93-34.94,21.29-57.92,19.45-7.84-.62-7.85-.77-10.87-9.08-5.13-14.11-10.27-28.22-15.41-42.33-.28-.77-.54-1.54-.69-1.98"/>
    <path d="M153.48,291.59h65.97v6.92c0,28.04-.27,56.08.17,84.11.13,8.15,1.6,16.48,3.79,24.35,2.21,7.94,8.36,12.93,16.55,14.62,22.95,4.74,36.85-4.64,39.15-26.49.44-4.21.72-8.46.73-12.69.06-28.22.03-56.45.03-84.66v-6.23h64.93c.15,1.1.41,2.12.41,3.15,0,32.65.43,65.31-.23,97.94-.5,24.61-9.64,45.61-30.17,60.47-13.14,9.5-28.15,14.21-44.04,16.36-21.24,2.87-42.32,2.15-62.85-4.34-33.68-10.66-53.08-34.65-54.5-70.47-1.34-33.7-.43-67.49-.48-101.24,0-.51.29-1.01.52-1.81"/>
    <path d="M421.18,285.93v-87.05h26.7v199.32h-22.58c-10.14-29.12-20.31-58.32-30.49-87.52l-1.01.08v87.46h-27.04v-199.26h22.91c10.06,28.89,20.17,57.92,30.27,86.94l1.24.03Z"/>
    <path d="M578.24,286.25c-15.81-26.61-31.37-52.79-46.93-78.97l-1.29.82c-.22,34.9-.43,69.8-.66,105.62,16.72-9.39,32.45-18.23,48.88-27.46M614.22,401.93c-.63-1.45-.98-2.08-1.19-2.79q-3.7-12.09,3.44-19.47c8.78-9.09,9.52-14.22,2.7-26.25-8.47-14.93-17.27-29.47-26.22-43.8-1.13-1.82-4.33-2.62-5.98-1.69-17.38,9.75-34.67,19.84-51.89,30.17-1.59.96-3.68,4.21-3.65,6.33.32,18.34.68,36.71,1.82,54.98.93,14.93,5.53,19.65,15.69,17.71,4-.75,8.1-1.66,11.82-3.77,4.64-2.63,7.28-1.54,8.45,5.84.41,2.54,1.29,4.91,2.06,7.78-25.44,14.81-50.21,29.23-75.71,44.08-1.15-4.23-2.54-8.32-3.27-12.64-.27-1.61.66-4.91,1.62-5.56,15.26-10.25,19.47-29.21,19.58-51.84.21-44.02.64-88.02.92-132.04.28-45.09.59-90.19.59-135.28,0-7.62,1.11-12.86,6.11-15.97,2.51-1.56,4.69-4.22,7.6-6.93,1.53,2.36,3.14,4.79,4.72,7.28,41.04,65.29,82.06,130.59,123.14,195.83,2.87,4.55,6.08,8.63,9.15,12.9,7.41,10.27,16.2,14.49,25.9,9.8,6.23-3.01,8.34.57,9.59,8.22.29,1.8.66,3.58,1.08,5.82-29.38,17.11-58.58,34.11-88.06,51.27"/>
    <path d="M285.81,124.65c7.83,0,14.97.19,22.09-.06,4.84-.17,7.87-3.35,8.86-7.83,1.66-7.53,2.84-15.17,4.19-22.77.29-1.59.41-3.21.62-5h7.55v93.44h-7.41c-.97-6.9-1.82-13.81-2.94-20.68-2.14-13.04-4.95-15.34-18.19-15.35h-14.35c-.15,1.8-.39,3.37-.39,4.93-.01,25.65-.13,51.29.1,76.93.06,6.79.85,13.61,1.9,20.31.89,5.63,4.73,8.53,10.54,8.52,5.16,0,10.33-.17,15.48.06,8.15.38,13.51-3.38,15.97-10.88,4.25-12.92,8.13-25.96,12.12-38.96.59-1.91.99-3.87,1.47-5.78,6.18.86,7.75,3.76,6.9,9.89-2.8,20.08-4.9,40.24-7.11,60.39-.34,3.16-1.31,4.51-4.69,4.5-32.25-.1-64.49-.07-96.74-.1-.7,0-1.39-.22-2.67-.45,0-4.08-.21-8.11.13-12.09.1-1.18,1.61-2.99,2.72-3.21,12.32-2.42,15.06-7.06,15.94-21.41.42-6.81.31-13.65.31-20.47-.06-58.84-.13-117.69-.29-176.54,0-3.85-.62-7.71-1.16-11.54-1.12-8.01-6.56-11.47-14.05-12.62V2.24h95.19c.67,22.09,1.36,44.51,2.06,67.34-2.59.71-4.95,1.36-7.39,2.03-2.03-9.96-3.98-19.49-5.93-29.03l-.31-1.63c-4.65-17.18-7.48-19.32-25.39-19.33-15.04,0-15.09.01-15.11,14.99-.03,27.49-.01,54.97-.01,82.46v5.57Z"/>
    <rect x="467.88" y="2.25" width="27.2" height="298.21"/>
    <path d="M104.84,85.32v-11.49h34.81v10.86c-10.36,6.4-11.55,8.97-11.66,29.43-.27,49.57-.32,99.15-.61,148.73-.02,4.23-.67,11.26-1.96,12.13-3.47,2.36-6.72.75-9.37-6.29-16.64-44.16-33.59-87.91-50.45-131.77-1.04-2.71-2.19-5.28-3.91-9.43-.27,4.21-.56,6.71-.55,9.2.1,30.3.12,60.6.41,90.89.23,24.18,1.47,26.77,13.91,32.79v11.19h-34.67c-1.4-8.13-.52-12.48,4.23-14.18,5.28-1.89,7.43-10.16,7.5-19.29.34-41.99.69-83.99.43-125.97-.11-17.48-3.12-21.99-14.18-27.56v-11.31c9.03,0,17.99-.34,26.92.35,1.45.11,3.02,4.52,4.17,7.43,15.05,37.82,30.03,75.74,45.04,113.62,1.06,2.67,2.22,5.21,4.37,10.19,0-11.78.01-20.85,0-29.92-.06-20.31-.06-40.63-.23-60.94-.18-21.37-2.18-25.38-14.18-28.66"/>
    <polygon points="156.01 102.06 242.35 102.06 242.35 123.43 193.03 123.43 193.03 136.92 236.37 136.92 236.37 158.34 192.54 158.34 192.54 184.46 156.01 184.46 156.01 102.06"/>
    <rect y="2.24" width="27.94" height="273.75"/>
    <path d="M153.02,275.42c-1.03-3.53.48-4.62,3.8-4.93,8.23-.78,9.29-1.9,9.38-10.33.15-14.56.12-29.12.04-43.67-.06-10.33-.69-10.96-11.21-12.59-1.28-3.26-.74-5.03,3.39-4.99,12.14.12,24.3.11,36.45,0,3.53-.03,4.71,1.23,3.53,4.94-1.09.17-2.33.34-3.55.57-7.08,1.32-8.18,2.54-8.22,9.9-.06,15.67-.06,31.33,0,46.99.03,6.89,1.13,7.71,7.87,8.64,11.87,1.63,21.05-2.05,26.6-13.03,1.86-3.68,4.2-4.12,8.38-1.64-1.87,6.16-3.72,12.59-5.89,18.91-.31.91-2.24,1.78-3.42,1.78-21.9.08-43.81.04-65.7-.01l-1.45-.51Z"/>
    <path d="M447.71,49.88c-3.89,3.96-5.97,2.98-7.49-5.76-3-17.26-9.1-27.71-18.54-29.58-11.03-2.18-20.36,3.35-26.74,22.66-9.29,28.13-8.15,79.51,2.22,106.11,9.5,24.35,31.49,36.74,43.98-8.87,2.1-7.69,4.02-12.69,8.61-3.58-2.08,11.77-4.14,24.16-6.51,36.29-.5,2.54-2.02,5.38-3.32,6-16.88,8.09-33.74,10.26-49.88-5.61-15.43-15.18-24.71-48.4-23.09-80.51,2.1-41.9,13.84-71.09,32.72-81.58,14.2-7.9,28.42-6.53,42.6-.19,1.31.59,3,4.28,3.21,6.94,1,12.48,1.54,25.11,2.24,37.68"/>
  </g>
  <path class="cls-1" d="M1384.39,85.88c1.93,0,1.93-3,0-3s-1.93,3,0,3h0Z"/>
</svg>