<?xml version="1.0" encoding="UTF-8"?>
<svg id="Capa_1" data-name="Capa 1" xmlns="http://www.w3.org/2000/svg" viewBox="0 0 1021.38 602.78">
  <defs>
    <style>
      .cls-1 {
        fill: #ff0;
      }
    </style>
  </defs>
  <path d="M582.18,91.82c9.09.92,20.54.57,29.3,2.49,7.59,1.66,9.07,5.88,11.95,12.38,10.12,22.83,18.42,49.19,38.55,65.73,4.37,3.59,13.73,7.44,16.51,10.43,9.27,9.99-10.59,27.88-15.68,36.5-4.18,7.08-9.9,18.5-13.01,26.1-1.86,4.55-7.38,25.02-9.56,26.93-5.92,5.2-13.52-10.17-18.65-11.78-2.72-.85-7.34-1.31-7.05,2.61l.07,268.53c.17,1.36.99,2.49,2.33,2.89,3.79,1.14,17.74-3.72,21.97-5.49,3.43-1.44,12.49-7.39,15.09-7.15,7.99.75,16.74,16.79,12.78,23.72-.92,1.6-16.75,15.55-18.86,16.77-6.11,3.55-16.31,6.78-23.49,10.4-61.38,30.99-129.92,38.92-193.25,7.55-45.64-22.6-83.66-57.8-101.46-106.24-19.84-53.97-26.57-114.17-6.31-169.26,4.41-12,19.88-41.74,27.96-51.12,43.91-51,104.33-87.07,169.35-105.27,6.93-1.94,23.04-3.96,28.14-6.63,13.24-6.92,19.7-33.89,27.63-45.37,1.26-1.83,3.47-4.23,5.69-4.74ZM563.21,188.2c-2.53-.64-4.29,1.32-4.28,3.76.5,60.44-3.59,120.51-.82,180.78.08,1.67.81,3.34.9,5.19.48,10.28-1.92,28.72,5.66,36.92,5.85,6.33,17.75-2.76,19.56-9.04l-.53-184.65-20.48-32.96ZM478.13,203.73c-2.45.76-5.17.65-7.59,1.53-6.58,2.4-38.15,35.43-42.68,42.49-39.48,61.58-36.06,159.51,3.5,220.41,3.68,5.66,7.66,12.38,15.01,10.98,2.65-.5,19.51-15.81,21.34-18.63,4.03-6.18,7.39-30.26,7.85-38.21,1.86-32.66-.58-67.83-.07-100.87.41-26.82,2.28-53.93,2.68-80.74.18-12.31-.21-24.66-.04-36.96ZM584.05,448.03c-2.69-1.18-5.71-1.49-8.53-.52-4.7,1.63-17.91,13.81-24.33,17.37-14.67,8.13-37.71,19.82-53.07,26.02-8.32,3.36-22.95,5.28-29.47,8.77-1.8.96-3.53,3.83-5.26,5.15,5.21,6.18,12.99,9.05,19.56,13.45,7.13,4.77,15.37,11.84,22.83,15.41,10.76,5.14,38.45,8.2,51.03,8.93,4.19.24,19.83.68,22.82-.57,1.41-.59,4.76-5.82,4.57-7.66l-.14-86.36Z"/>
  <path d="M710.37,562.78c6.21-1.57,13.57-.43,19.59-2.58,9.97-3.56,28.74-24.96,33.15-34.64,4.12-9.03,4.89-20.7,6.2-30.3,5.28-38.78,1.31-78.24,2.57-117.35.32-9.91,2.73-21.47,2.64-31.25-.09-9.51-1.63-23.28-2.61-33.02-1.59-15.73-19.12,2.63-24.72-4.83-3.07-4.09-1-23.13,1.45-28,.88-1.75,3.9-4.44,5.48-5.82,20.17-17.64,48.32-35.96,70.87-50.8,21.73-14.3,50.91-28.65,69.06-46.53,1.75-1.73,4.29-3.38,3.88-6.1-13.4-1.05-27.85-1.93-41.02-4.61-6.05-1.23-13.61-5.02-18.56-5.77-4.35-.66-38.28-.79-41.48.13-1.51.43-15.09,9.51-16.71,11.1-13.53,13.31-15.2,29.07-13.5,47.41.5,5.38,6.71,16.33-2.19,17.72-23.14,3.63-55.79-15.7-66.31-36.13-9.55-18.55-10.51-52.43-.83-70.96,19.03-36.44,60.93-42.99,98.51-39.74,7.31.63,33.4,11.19,40.71,14.91,19.25,9.79,35.17,19.99,56.18,28.12,26.89,10.4,62.14,6.61,83.85-13.46,3.53-3.26,7.65-12.46,11.75-14.32,3.4-1.54,11.54-1.63,12.19,3.42,1.42,11.03-1.09,25.11-.09,36.49-26.83,35.48-21.59,84.64-22.51,126.95-.72,33.24-1.36,66.57-1.74,99.93-.41,36.77-5.14,88.75,1.08,123.98,2.35,13.31,7.13,16.39,19.48,9.53,4.78-2.65,5.2-6.39,11.86-3.5,4.96,2.15,12.95,16.73,12.78,21.99-.06,1.76-1.01,4.46-1.91,5.98-3.49,5.95-18.42,18.61-24.18,25.35-8.68,10.16-18.02,22.69-25.06,34.04-4.36,7.03-3.94,14.9-14.97,12.02-15.86-4.14-35.97-26.35-44.13-40.17-3.92-6.64-12.66-28.79-17.59-31.93-3.26-2.08-4.33-1.48-7.52.22-22.51,11.95-44.67,28.66-68.34,39.42-13.84,6.3-30.63,10.56-45.14,15.7-14.54,5.15-28.95,12.49-44.75,14.34-3.11.36-13.39,1.19-14.85-1.22-1.05-1.73-4.24-13.17-4.49-15.49-.36-3.32-.54-18.7,1.92-20.25ZM914.43,205.47c-1.65-2.24-6.98,1.83-8.62,3.11-9.59,7.49-23.77,25.85-30.69,36.22-13.89,20.81-19.6,59.63-20.69,84.45-.45,10.24-1.27,29.63,0,39.18.45,3.39,3.21,6.07,6.44,3.75,11.81-9.83,24.64-17.86,34.27-30.04,2.19-26.85,2.08-53.86,4.51-80.64,1.3-14.27,2.85-33.25,9.39-46.22.83-1.65,6.6-8.17,5.39-9.81ZM894.89,385.51c-1.89,0-25.67,20.15-29.72,23.13-3.39,2.49-7.74,3.56-10.2,7.18-1.81,5.91-3.35,11.95-4.59,18.01-2.18,10.71-2.8,24.83-5.89,34.95-3.44,11.26-17.39,39.94-24.42,49.44-2.64,3.57-6.03,5.49-8.34,9.92-5.94,11.43.54,9.29,8.56,5.96,17.2-7.14,48.2-26.28,62.78-38.03,4.27-3.44,7.73-7.99,11.79-11.67.94-17.27,1.63-34.45,2.2-51.68.45-13.45,2.28-28.27.91-41.77-.17-1.64-1.17-5.42-3.09-5.42Z"/>
  <path d="M280.67,142.23c.24,6.83,4.91,24.56,2.34,30.21-3.25,7.16-18.85,8.52-25.57,12.67-14.11,8.73-15.79,20.08-16.61,35.53-1.45,27.41.67,56.05-1.74,83.42,2.22,39.88-4.46,84.02-.87,123.46.32,3.51,2.34,11.67,6.56,11.63,2.51-.02,15.9-9.2,21.05-10.16,2.3-.43,10.57-.65,12.4.23,3.17,5.31,9.5,16.18,7.64,22.42-2.01,6.74-26.67,14.77-33.44,17.83-8.88,4.01-17.61,8.54-26.61,12.5-12.37,5.43-29.12,10.41-40.51,17.72-1.05.67-1.83,1.64-2.67,2.53,1.25,1.65,2.99,2.44,4.97,2.84,15.48,3.14,31.98,3.49,47.51,6.38,24.1,4.48,43.78,30.91,69,33.59,11.23,1.19,21.38-11.82,27.38-10.08,2.53.73,3.3,8.97,3.3,11.59.03,18.7-18.55,32.79-33.7,41.11-23.12,12.7-65.13,15.2-91.09,12.34-21.04-2.32-48.82-23.05-68.89-31.92-6.61-2.92-29.63-12.69-35.41-13.26-23.59-2.34-57.63-.24-73.43,19.54-1.9,2.38-9.34,16.11-13.8,13.35-3.11-11.35-10.63-22.49-13.77-33.58-1.84-6.51-2.56-15.19,2.76-20.22,2.36-2.22,5.16-2.67,7.43-4.74,5.9-5.38,19.79-23.44,25.06-30.56,8.12-11,14.26-22.71,16.65-36.36l.05-204.24c-.31-2.25-2.77-6.18-4.35-7.82-4.28-4.43-9.55-2.96-11.14-10.58-1.94-9.29,4.16-9.31,11.38-12.56,13.74-6.19,28.32-12.53,42.31-17.66,16.18-5.94,33.29-9.62,49-16.85.99-.78.93-5.56,0-6.26-1.95-1.48-10.03-4.1-12.92-5.14-18.41-6.62-37.45-11.82-57.28-9.45-2.29.27-15.95,3.86-17.91,4.68-4.38,1.85-16.28,13.97-18.17,18.33-3.09,7.14-4.14,28.86-6.67,32.43-3.55,5-12.77,1.51-16.82-1.29-4.26-2.94-12.27-16.65-13.04-21.72-1.46-9.65-1.3-45.59-.08-55.58,2.01-16.41,30.8-43.69,45.62-49.97,16.42-6.96,45.67-7.5,62.16-.4,2.99,1.28,5.08,3.94,7.77,5.26s5.54,1.33,7.81,2.62c11.17,6.32,24.15,23.74,34.37,32.54,25.09,21.6,53.2,25.48,84.35,14.77,6.18-2.12,33.15-17.36,37.61-11.13ZM171.13,217.77c-1.47.16-4.84,1.66-6.47,2.31-13.87,5.48-27.01,11.36-29.75,27.61l.76,161.59c1.85,6.38-1.55,24.13,8.36,24.72,2.87.17,21.63-11.87,23.02-14.28,3.08-5.38-1.42-20.29-.08-27.02,5.27-45.88-.68-95.14,2.61-140.77.5-6.99,7.03-27.96,4.81-32.55-.64-1.33-1.83-1.75-3.25-1.6ZM163.34,455.94c-9.15.45-27.38,13.52-35.75,19.06-8.35,5.52-16.3,12.12-24.99,17.6-8.8,5.55-18.73,9.61-27.16,16.29-3.03,2.4-14.62,11.84-5.41,12.94,4.59.55,14.43.36,19.2-.02,8.29-.65,31.04-10.85,38.4-15.48,16.34-10.28,36.02-29.26,38.28-49.33-.71-1.51-1.32-1.12-2.57-1.06Z"/>
  <rect class="cls-1" x="0" width="1021.38" height="56.28"/>
</svg>