<?xml version="1.0" encoding="UTF-8"?>
<svg id="Capa_1" data-name="Capa 1" xmlns="http://www.w3.org/2000/svg" viewBox="0 0 847.38 1049.38">
  <defs>
    <style>
      .cls-1 {
        fill: #ff0;
      }
    </style>
  </defs>
  <path class="cls-1" d="M597.43,0c2.9.56,5.18,3.82,7.17,4.72,3.13,1.41,6.71.09,10.11,2.08,5.83,3.42,5.57,9.47,5.27,15.45-.47,9.28-2.07,19.85-3.05,29.27-14.21,137.33-42.29,272.94-82.2,404.79,1.34,2.29,3.22.94,5.06.95,37.54.3,67.56,3.59,102.9,16.64,46.61,17.21,111.12,60.71,127.28,109.88,5.52,16.78,6.36,33.9,4.96,51.45,14.38,7.84,29.32,14.7,43.81,22.34,5.62,2.96,22.44,11.02,25.86,14.99,1.47,1.7,1.82,3.56,2.78,5.45v4.27l-14.03,136.27c.46,48-41.71,60.56-77.2,78.27-73.96,36.9-148.13,73.73-222.51,109.75-31.74,15.37-70.72,37.49-106.57,37.91-4.34.05-10.09-1.37-14.04-.62-2.3.44-4.69,5.05-9.77,5.48-8.45.71-9.31-5.22-15.12-7.44-3.92-1.49-8.66-2.01-12.93-3.53-12.05-4.3-22.97-12.29-32.89-20.15-59.14-54.63-123.4-104.25-182-159.42-17.39-16.37-24.09-27.18-29.06-50.81-9.62-45.7-15.57-101.86-2.46-147.19,2.9-10.04,6.43-20.14,19.3-14.77,84.27,61.02,161.82,130.8,233.23,206.34,2.23,2.36,11.02,13.21,13.08,13.79,1.49.42,6.99-4.09,8.97-5.13,1.75-.93,3.99-1.78,5.88-2.66,58.9-27.39,121.42-49.67,180.67-76.61,2.89-.91,3.64-2.72-.08-2.56-29.48,1.27-55.1,2.29-84.68-1.9-71.93-10.18-144.22-45.57-182.77-108.96-.96-.56-4.65,1.63-5.8,2.24-9.42,4.99-31.18,20.89-40.2,21.99-12.61,1.53-25.51-12.7-36.41-18.94-10.2-5.84-20.79-9-31.11-14-14.19-6.88-24.59-17.9-24.17-34.67-1.51-1.63-24.79,15.51-30.75,15.26-5.14-.22-7.85-4.64-9.81-4.91s-4.46,1.28-6.68,1.28c-5.37,0-16.96-7.81-22.64-10.32-23.45-10.36-49.41-13.7-74.82-10.98-6.5.69-14.11,4.14-20.1.43-2.86-1.77-5.72-5.99-5.83-9.41-.18-5.69,3.2-14.76,3.02-20.65-.09-2.89-3.11-11.12-3.68-15.88-3.56-29.72-4.87-60.89-7.32-90.84-1.64-20.04-4.42-39.93-4.87-60.06-.13-5.92-.25-12.4,0-18.29.79-18.83,10.01-38.64,16.61-56.25,31.29-83.38,65.53-165.69,96.51-249.19-1.26-6.59,7.26-17.92,13.41-18.89,3.59-.57,7.26.93,11.39.41,13.02-1.64,30.91-7.95,44.35-11.13C316.98,33.96,452.89,11.64,589.86.63l1.48-.63h6.1ZM512.09,31.71c-94.88,10.53-189.18,26.5-282.26,47.24-20.11,4.48-40.25,9.14-60.23,14.14-3.9.98-29.68,7.11-30.65,8.37-1.19,3.15-.32,7.03-.53,10.45-1.4,22.6-5.23,45.03-12.06,66.6-.9,2.85-7.72,19.91-6.86,20.87,14.49-6.82,28.4-14.93,42.66-22.26,98.66-50.73,201.25-94.29,306.34-130.17,12.79-4.37,29.45-8.24,41.33-13.54.85-.38,2.02-.61,2.27-1.68ZM594.99,32.93c-145.91,40.01-287.65,95.52-421.87,164.91-10.92,5.64-21.96,11.33-32.71,17.28-1.91,1.06-9.69,4.94-10.57,5.89-1.8,1.96,1.48,5.7,2.8,7.58,11.94,17.03,37.91,41.81,54.57,54.56,2,1.53,10.24,7.97,12.14,7.44s8.42-5.41,10.95-6.78c16.41-8.88,33.75-16.21,50.44-24.55,1.63-.57,1.88-2.18.81-3.52-14.19-14.85-29.15-29.08-42.96-44.22-4.76-6.9-.78-16.56,7.54-17.97,2.65-.45,5.06-.03,7.58-.35,18.6-2.36,40.39-25.01,57.67-33.78,9.23-4.68,28.2-12.62,33.85.32,3.49,7.99,5.81,22.38,8.68,31.56,1.06,3.38,9.37,29.21,10.92,29.45l85.98-34.07c1.71-.73,2.48-2,1.76-3.8-7.3-22.27-16.61-44.02-22.75-66.58.35-4.04,2.26-6.81,5.36-9.27,30.86-11.89,61.33-25.57,92.47-36.77,6.18-2.22,10.77-5.05,17.06-.91,2.38,1.57,3.23,3.52,4.29,6.08l17.88,70.23c4.59-.79,34.75-8.61,35.9-10.77,4.13-28.29,8.13-56.73,10.97-85.21.55-5.56,1.17-11.17,1.22-16.76ZM495.74,162.69c.69.4,1.63,0,2.35-.17,4.72-1.08,19.77-5.86,23.76-7.95.89-.46,1.77-.59,1.85-1.85l-12.99-54.7c-.22-.93-1.1-2.6-2.05-2.79-1.97-.38-17.74,7.33-20.99,8.18-.44,20.06-.04,40.68,8.08,59.27ZM463.31,113.4c-7.02,2.25-14.46,4.7-21.13,7.82-1.37.64-4.97,1.94-5.11,3.47l17.24,49.24c.33.9,1.07,2.56,2.07,2.75,2.87.55,13.41-4.94,16.69-5.99-4.04-12.96-7.3-26.32-8.52-39.92-.52-5.75.53-11.72-1.23-17.37ZM578.54,162.18c-1.26-.14-2.45.04-3.69.28-9.06,1.74-27.93,7.94-36.72,11.45-5.65,2.26-2.45,2.64-2.34,6.93.15,6.04-3.85,7.17-4.68,9.82-.59,1.87-.48,5.43-.92,7.62-11.8,58.93-27.99,117.06-39.87,175.96-5.38,26.67-10.92,59.36,8.64,81.83,7.52,8.63,9.05,5.71,12.06-3.2,6.22-18.4,11.51-38.27,16.73-57.04,21.37-76.78,38.45-154.82,50.77-233.65ZM305.95,179.94c-2.2-1.36-13.24,5.64-14.89,7.82-.49.64-1.12,1.04-.8,2.01l25.2,42.53c.72,1.76,6.68-.92,6.93-1.31,1.01-1.59-4.49-14.01-5.41-16.67-3.94-11.38-7.41-22.91-11.04-34.38ZM512.08,183.53c-1.08-1.03-14.97,4.05-17.38,4.86-66.4,22.38-133.38,49.91-197.01,79.17-23.11,10.62-48.08,21.81-70.32,33.93-14.77,8.05-20.97,11.18-26.03,28.23-6.08,20.5-9.95,46.9-14,68.31-8.67,45.82-19.35,98.23-23.28,144.39-.16,1.91-.07,3.81-.07,5.71l4.07-1.1c95.41-42.22,190.57-85.27,286.41-126.33,3.27-.68,7.72,2.96,7.62-2.11-.34-18.03,2.15-32.79,5.67-50.43,11.93-59.84,27.95-119.05,40.82-178.67.74-2.31,3.7-3.45,3.49-5.95ZM269.26,203.13c-2.08,1.42-16.04,8.25-16.24,9.42l.24.84,31.45,31.98c1.74,2.17,7.79-.44,9.13-1.81s-1.91-5.43-2.81-6.95c-5.32-9.07-11.25-19.39-17.07-28.05-.82-1.21-3.23-5.58-4.71-5.44ZM30.49,491.43l1.66-2.3c15.44-88.11,34.71-175.51,58.43-261.67.54-.64.04-2.49-.65-2.46-.86.04-3.84,8.16-4.42,9.59-15.18,37.27-29.7,75.14-43.89,112.8-8.09,21.45-18.62,43.58-17.86,66.94l6.74,77.1ZM183.43,309.22c-19.55-14.14-37.75-30.31-53.9-48.25-5.08-5.64-10.4-13.57-15.52-18.62-.81-.8-1.73-2.34-2.74-.88-24.54,88.96-44.16,179.38-59.35,270.49-3.87,23.24-9.91,51.33-11.6,74.36-.09,1.21-.5,4.15.49,4.84.84.59,9.98.29,11.95.3,5.34.02,10.99-.4,16.46-.05,21.37,1.35,42.31,7.71,61.69,16.39l1.68-.52,3.25-30.99c-17.86-5.53-36.56-8.53-54.65-13.32-13.8-3.66-20.6-6-18.93-22.37,6.85-22.69,10.27-48.81,18.04-70.98,5.93-16.91,15.99-14.88,30.2-9.73,12.19,4.41,24.09,9.84,36.27,14.33,3.26.7,3.4.12,4.15-2.87,1.21-4.79,3.17-16.31,3.35-21.1.03-.76.09-1.42-.32-2.11-1.03-1.69-31.89-12.86-36.69-15.13-13.98-6.61-19.82-14.74-17.71-30.73,2.25-17.09,7.48-40.27,11.71-57.18,2.74-10.96,8.1-19.67,21.02-16.13,12.35,3.37,26.29,13.1,38.4,16.46,1,.28,1.99.48,3.02.24l9.74-36.44ZM168.13,370.22l-34.25-14.8c-1.25.21-4.35,15.64-3.44,17.93l33.17,17.45c1.7-.52,5.48-18.91,4.51-20.57ZM158.44,423.69c1.72-4.07,1.65-4.9-1.48-7.85-4.4-4.15-13.93-9.96-19.39-12.93-1.8-.98-11.98-6.43-13.19-5.36-.57,4.14-3.91,9.8,0,13.06,9.87,3.79,20.73,9.53,30.73,12.55,1.08.33,2.15.83,3.32.53ZM160.35,572.85l-4.24,38.31c.64,2.39,5.92-1.06,7.28-1.74,13.64-6.85,26.81-16.08,40.12-23.6-1.36-6.66-1.97-11.36,3.81-15.99,9.09-7.29,43.02-21.27,54.48-21.72,5.23-.21,9.37,2.62,14.35.93,18.95-9.28,39.24-16.74,58.13-25.99,16.33-7.99,28.94-18.47,46.74-25.81,30.5-12.57,63.28-21.38,95.02-30.26l-10.92-26.16-304.78,132.03ZM329.19,582.28l156.99,17.13c.53-.03,1.11-.02,1.55-.33,1.07-.75,1.48-9.19,1.97-11.44,9.59-43.65,83.91-42.02,107.7-12.97,14.54,17.74,9.18,46.78-8.23,60.63-7.85,6.25-11.58,4.28-19.82,6.4-2.09.54-5.19,3.81-7.78,5.02-11.01,5.13-24.19,2.51-35.8,2.01-46.7-2-93.06-4.92-139.59-9.77-16.29-1.7-33.92-5.13-50.01-6.09-1.04-.06-3.61-.32-3.92.96,10.14,29.32,31.34,53.13,55.51,71.84,76.43,59.16,189.94,62.58,279.61,35.28,23.44-7.13,47.47-17.37,63.88-36.1,17.23-48.8,36.81-97.24-.35-142.38-35.76-43.44-95.87-73.65-151.55-80.12-16.1-1.87-49.84-3.11-64.98,1.32-2.59.76-5.17,2.57-8.09,3.5-50.95,16.15-102.09,31.21-151.31,52.31-9.92,5-21.07,23.16-24.25,33.67-.92,3.04-1.94,5.88-1.55,9.13ZM145.54,498.9l-43.98-16.66-5.88,22.28.29.97c7.49,1.47,15.51,1.04,23.21,1.79s15.81,2.25,23.65,3.53c3.36-.3,4.23-10.32,2.71-11.92ZM138.91,551.71c.46-.3,1.85-8.67,1.93-9.95.12-1.82.54-6.7-1.05-7.53-2.19-1.14-13.86-2.69-17.03-3.09-10.89-1.35-22.11-1.55-33.05-1.81-.72.45-3.29,9-3.06,9.92.12.48.51.69.94.85l51.33,11.61ZM309.69,559.72c-3.3.86-6.9,1.79-9.13,4.57.83.98,5.82,5.2,6.68,4.57.93-3.08,3.02-5.7,2.44-9.14ZM281.03,592.64c.99-1.07-4.24-5.44-5.18-6.09-3.03-2.11-6.82-3.14-9.65-5.65-3.07-.29-6.7,1.3-2.66,3.94,1.56,1.02,16.84,8.51,17.49,7.81ZM526.08,580.47c-6.14-.4-13.08,7.72-13.86,13.24-.7,4.9.62,5.96,5.19,4.55,6.67-2.05,11.15-11.16,8.68-17.79ZM576.17,613.29c2.19,1.25,4.97-5.98,5.37-7.58,3.4-13.34-4.55-22.02-17.03-24.65-1.19,1.23,10.16,31.38,11.65,32.23ZM215.83,606.08c-1.42,2.07,7.35,7.34,9.09,8.23,12.18,6.22,29.38,8.27,42.71,5.47,2.29-.48,9.24-1.53,5.3-4.09-4.19-2.72-10.24-5.53-14.84-7.72-5-2.38-19.03-9.12-23.73-9.81-5.85-.86-12.88,6.37-18.53,7.92ZM508.43,623.74l2.11,1.24c11.85-1.07,26.3,2.48,37.82,1.2,3.19-.36,5.32-1.62,5.21-5.16-.05-1.74-4.37-12.74-5.41-14.77-.61-1.2-1.11-2.4-2.25-3.23-8.4,12.69-22.08,20.67-37.49,20.72ZM485.87,623.13c-36.19-4.75-72.48-9.7-108.82-13.42-14.69-1.5-33.14-4.23-47.57-4.16-3.68.02-2.71,2.65,1.41,3.38,16.14,2.89,34.61,4.5,51.05,6.26,33.11,3.53,67.95,6.95,101.17,8.57.66.03,2.88.41,2.77-.63ZM218.86,637.76c5.79,4.13,13.38,6.02,19.92,9.03,3.95,1.82,8.4,3.99,12.19,6.1,8.14,4.52,15.18,10.43,23.06,15.31,1.36-.27,2.55-1.06,3.76-1.69,8.25-4.25,23.67-13.08,30.88-18.51.96-.72,2.07-1.3,2.26-2.67.12-.88-3.61-13.33-4.24-14.64-.27-.55-.34-1.19-.99-1.47-26.44,16.93-57.48,19.31-86.84,8.53ZM758.4,709.69l48.74-21.02-34.38-24.13-3.33-.48c-3.78,12.88-8.88,25.48-11.68,38.61l.65,7.02ZM243.85,754.21c-.73,6.8-1.81,13.62-2.44,20.43-.76,8.24-1.42,16.75-1.83,25-.56,11.51.92,28.2-.76,38.87-1.36,8.63-11.4,12.88-18.44,7.77-11.09-12.82-23.27-25.51-33.82-38.73-6.45-8.08-10.82-14.14-11.62-24.96-1.72-23.34.1-51.38.66-74.99.09-3.61,0-7.27-.15-10.88-.5-1.71-19.7-16.39-22.6-18.25-.62-.4-2.9-2.12-3.48-1.69-8.66,37.28-4.25,77.99,2.62,115.35,3.85,20.91,5.53,31.28,21.14,46.54,54.33,46.79,107.25,95.25,161.55,142.06,11.17,9.63,22.98,20.77,35.42,28.6,1.88,1.18,7.88,5.89,8.48,2.49,1.07-6.03-.31-16.41,0-23.16.82-17.29,3.89-35.11,4.86-52.45.83-14.69-.4-29.67,2.15-44.18-12.98-13.84-25.47-28.21-38.71-41.8-1.35-1.38-8.2-9.13-9.77-7.61-.95,15.11-1.11,30.34-2.44,45.42-.48,5.42-.98,12.38-1.89,17.62-2.64,15.24-16.65,15.85-27.81,8.44-8.46-5.61-27.19-29.76-34.29-38.87-7.7-9.89-10.45-14.18-9.76-27.42,1.11-21.31,5.59-42.61,6.78-63.95-.3-2.02,2.65-5.84,2.28-7.27-.32-1.22-14.84-14.82-16.98-16.6-1.35-1.12-7.84-7.03-9.15-5.79ZM693.15,900.55c.72.72,11.87-4.75,13.63-5.58,25.19-11.92,53.65-25.14,77.83-38.62,17.59-9.8,22.68-15.25,24.97-35.99,3.43-31.06,4.24-65.52,5.5-96.93.06-1.5,1.98-9.24-.85-8.8l-28.11,18.85c-1.07,9.03-.54,18.11-.89,27.16-.05,1.44-.6,2.77-.66,4.22-.49,12.2,1.23,35.66-4.96,45.65-6.42,10.36-26.89,17.34-38.58,18.12-3.11.21-10.46-.7-12.73.07-.7.24-3.76,4.97-5.34,6.25-6.14,5-15.5,5.17-22.49,1.87-18.68-8.81-15.06-35.4-19.59-52.05l-2.51.08c-32.91,12.22-65.93,24.18-98.77,36.59-11.31,4.27-27.36,9.01-37.65,14.17-1.06.53-2.88,1.52-2.89,2.91-.04,3.63,1.32,8.57,1.67,12.34,1.45,15.64,3.54,37.07,1.15,52.35-2.72,17.37-15.21,18.09-29.67,22.16-9.56,2.69-29.78,8.99-38.86,8.74-26.33-.73-20.48-33.57-25.44-50.78-1.01-3.51-2.5-2.23-4.9-.95-7.69,4.09-23.01,13.29-29.65,18.52-1.53,1.21-3.33,2.88-3.66,4.87-3.52,28.29-3.1,56.87-1.25,85.32.42,6.5.99,14.33,1.83,20.73.91,6.93.71,8.18,8.23,8.84,25.11,2.21,50.91-9.16,73.06-19.59,33.73-15.88,66.67-33.58,100.33-49.64l1.83-2.36c-9.7-34.36,11.12-74.29,46.12-83.22,26.22-6.69,51.46,6.22,53.3,34.71ZM198.74,715.8v28.05c5.47.85,8.29,3.55,11.9,7.31,1.37,1.43,7.09,9.7,8.82,8.54.21-5.22,4.57-21.57,2.74-25.59-.26-.58-2.07-2.14-2.72-2.76-3.41-3.25-13.69-12.1-17.39-14.31-1.03-.62-2.11-1.21-3.35-1.23ZM761.42,748.11c-.88-.88-16.53,7.01-16.97,8.33-.43,15.57.7,31.14,2.34,46.55,7.41-.88,13.33-2.96,14.04-11.26.91-10.61.37-23.35.56-34.19.05-3.1,1.22-6,.02-9.43ZM720.57,767.63c-.7-.63-16.68,6.22-16.99,7.1l4.97,36.33c.54,1.37.94,3.22,2.59,3.53.47.09,9.15-.5,9.62-.62,2.28-.55,2.92-7.46,2.86-9.46-.2-6.33-1.4-13.63-1.84-20.1-.38-5.55.09-11.28-1.2-16.79ZM216.36,787.19c-3.88-.38-7.25-2.26-10.03-4.91-1.16-1.11-5.98-8.46-7.59-7.34-2.94,8.83,3.87,15.55,9.15,21.63,1.07,1.23,6.27,7.31,7,7.63,1.22.53,1.47-2.12,1.52-2.73.4-4.81.51-9.51-.06-14.28ZM313.35,834.08v-16.77c0-.42-1.4-1.93-1.81-2.45-2.98-3.8-13.78-14.1-17.68-17.07-2.42-1.84-3.55-2.73-4.21.68-.78,4.04-2.23,15.7-1.94,19.48.07.86-.13,1.77.64,2.42l25,13.71ZM312,868.96c-.17-.29-4.06-3.22-5.06-4.39-2.15-2.53-3.63-5.67-5.8-8.22-1.88-2.2-13.23-12.45-15.77-10.63-1.45,1.04-1.75,8.81.03,10.52,7.95,8.08,14.95,19.96,23.05,27.56.65.61,1.62,1.16,2.46,1.49.95-.7,1.8-15.11,1.09-16.33ZM516.34,846.89c-3.97.73-7.76,2.27-11.01,4.67.17,1.66,1.01,3.2,1.2,4.85,1.43,12.13.03,28.83.06,41.4,0,.58.46,3.25.99,3.39,2.05.56,8.97-.8,10.6-2.17.61-.51,1.16-6.42,1.24-7.9.42-7.41-.09-17.55-.61-25.05-.44-6.39-1.4-12.88-2.47-19.18ZM483.43,906.94v-43.9c0-1.98-6.67.92-7.73,1.42-1.85.87-6.28,3.26-6.36,5.28,1.38,4.75,4.6,38.5,6.22,39.88,1.07.92,7.46-.29,7.86-2.68ZM653.38,887.3c-21.71.14-39.06,23.52-38.93,44.03.01,2.24.48,8.78,3.71,7.37l45.16-22.57c.99-8.61,8.73-11.16,5.13-20.46-2.14-5.52-9.5-8.41-15.06-8.37Z"/>
  <path class="cls-1" d="M1.22,400.58c-.25,5.89-.13,12.37,0,18.29H0v-18.29h1.22Z"/>
  <path class="cls-1" d="M377.2,777.48c4.57-.93,7.2,3.7,9.32,6.9,7.84,11.82,13.15,30.34,11.57,44.52-.34,3.03-1.49,5.61-4.71,6.26-1.79.36-8.19.75-10.23.75-4.57,0-4.51-3.15-6.69-5.51-1.27-1.37-3.41-2.52-4.27-3.65-3.17-4.2-2.11-25.94-1.46-31.92.47-4.36,1.38-16.32,6.47-17.35ZM381.63,805.43v11.89c0,.45.93,5.22,1.17,5.54.97,1.28,3.1.89,3.1-.05v-9.15c0-1.28-2.58-7.63-4.27-8.23Z"/>
  <path class="cls-1" d="M413.15,761.05c3.13-.72,5.59.14,7.01,3.09,1.58,3.28,2.18,13.02,3.22,17.51,1.83,7.9,4.77,15.61,8.13,22.96,2.57,5.62,9.95,12.78,1.23,16.87-5.95-.12-17.12,3.02-21.86-.5-5.72-4.25-5.06-7.42-4.86-14.03.34-11.31,1.22-29.32,3.09-40.2.4-2.33,1.46-5.12,4.04-5.71ZM420.64,810.3c1.45-1.43-3.07-7.29-3.1-2.13-.01,2.08,2.35,2.88,3.1,2.13Z"/>
  <path class="cls-1" d="M711.9,584.88c10.53-.41,14.13,12.24,16.43,20.44,17.65,62.99-38.62,124.51-100.12,129.38-9.92.79-17.86-6.11-13.73-16.17,3.25-7.93,17.01-7.96,24.66-10.09,40.35-11.19,72.81-43.48,68.56-87.98-.8-8.35-7.67-19.79-6.48-26.76.79-4.65,6.06-8.64,10.68-8.82Z"/>
  <path class="cls-1" d="M668.63,616.56c7.84-.86,12.3,5.13,12.93,12.37,2.23,25.84-22.33,54.6-48.45,55.21-10.23.24-16.51-10.54-10.33-18.9,3.36-4.55,8.19-3.91,12.93-5.36,9.44-2.88,18.23-10.81,21.03-20.43,2.49-8.56-1.18-21.46,11.89-22.89Z"/>
  <path class="cls-1" d="M381.63,805.43c1.69.61,4.27,6.96,4.27,8.23v9.15c0,.94-2.13,1.33-3.1.05-.24-.32-1.17-5.08-1.17-5.54v-11.89Z"/>
  <path class="cls-1" d="M420.64,810.3c-.75.75-3.11-.05-3.1-2.13.03-5.16,4.55.7,3.1,2.13Z"/>
</svg>