<?xml version="1.0" encoding="UTF-8"?>
<svg id="Capa_2" data-name="Capa 2" xmlns="http://www.w3.org/2000/svg" viewBox="0 0 92.19 76.48">
  <g id="FONCHITAS">
    <path id="N" d="M81.68,72.18c-.01,1.59-1.17,2.94-2.74,3.18-1.74.26-3.94.19-5.52-1.5L23.36,10.46c-1.2-1.5-3.96-.78-3.96,1.03v57.08c0,2.6.54,4.35,1.61,5.27,1.07.91,2.93,1.37,5.57,1.37h2.35c.25,0,.37.18.37.53v.32c0,.28-.12.42-.37.42H5.78c-.5,0-.74-.14-.74-.42v-.32c0-.35.25-.53.74-.53h2.35c2.39,0,4.17-.49,5.32-1.47,1.16-.98,1.73-2.7,1.73-5.16V6.85c0-1.2,1.35-6.04-13.93-5.22h-.38c-1.22-.04-1.12-1.63.09-1.63h24.12c.91,0,1.76.36,2.3.98l46.74,58.18c1.2,1.49,3.95.77,3.95-1.04V6.85c0-2.11-.54-3.55-1.61-4.32-1.07-.77-2.93-1.16-5.57-1.16h-2.23c-.5,0-.74-.21-.74-.63v-.32C67.92.14,68.17,0,68.66,0h23.03c.33,0,.5.14.5.42v.32c0,.42-.17.63-.5.63h-2.35c-2.4,0-4.19.39-5.39,1.16s-1.79,2.21-1.79,4.32l-.5,65.33h.02Z"/>
  </g>
</svg>