<?xml version="1.0" encoding="UTF-8"?>
<svg id="Capa_2" data-name="Capa 2" xmlns="http://www.w3.org/2000/svg" viewBox="0 0 161.96 230.61">
  <g id="FONCHITAS">
    <path id="F" d="M158.56,90.94c0-12.99-3.02-22.37-9.06-28.12-6.04-5.76-16.7-8.64-31.99-8.64h-58.19c-4.92,0-8.92,3.99-8.92,8.92v62.6c0,4.92,3.99,8.92,8.92,8.92h19.96c10.94,0,18.87-2.14,23.78-6.41,4.91-4.28,7.36-11.18,7.36-20.72V1.36c0-.75.61-1.36,1.36-1.36h.4c.75,0,1.36.61,1.36,1.36v106.11c0,9.37,2.41,16.24,7.22,20.6,4.81,4.36,12.6,6.54,23.36,6.54h16.48c.75,0,1.36.61,1.36,1.36h0c0,.75-.61,1.36-1.36,1.36h-16.48c-10.76,0-18.55,2.06-23.36,6.17s-7.22,10.86-7.22,20.23v12.95c0,.75-.61,1.36-1.36,1.36h-.4c-.75,0-1.36-.61-1.36-1.36v-12.95c0-9.54-2.5-16.32-7.5-20.35-5-4.03-12.88-6.04-23.64-6.04h-19.96c-4.92,0-8.92,3.99-8.92,8.92v67.81c0,3.95,1.18,7.24,3.54,9.87,2.36,2.63,7.31,3.95,14.86,3.95h15.01c.94,0,1.42.33,1.42.99v.74c0,.66-.47.99-1.42.99H1.13c-.76,0-1.13-.33-1.13-.99v-.74c0-.65.38-.99,1.13-.99h15.29c7.55,0,12.46-1.31,14.72-3.95,2.27-2.63,3.4-5.92,3.4-9.87V67.99c0-4.6-.9-8.06-2.69-10.36-1.8-2.3-5.99-3.45-12.6-3.45H1.13c-.76,0-1.13-.33-1.13-.99v-.74c0-.66.38-.99,1.13-.99h134.77c4.72,0,8.49-.41,11.33-1.23,2.83-.82,5.28-2.06,7.36-3.7,2.26-1.97,3.63-4.15,4.11-6.54.47-2.38.71-4.89.71-7.53,0-.49.28-.74.85-.74h.85c.57,0,.85.25.85.74v64.14c0,.82-.47,1.23-1.42,1.23h-.57c-.95,0-1.42-.41-1.42-1.23v-5.67h0Z"/>
  </g>
</svg>